<svg xmlns="http://www.w3.org/2000/svg" width="385" height="287" fill="none" viewBox="0 0 385 287">
  <path stroke="#1D2021" stroke-width="2" d="M107.18 112.781c11.759 1.231 24.766 6.398 32.573 10.382 7.808 3.984 12.453 8.73 14.272 13.523 1.818 4.793.424 10.508-3.363 15.236-3.786 4.728-10.313 10.255-19.358 13.13-9.045 2.876-22.717 3.313-34.912 4.122-12.195.809-26.695 2.254-38.257.73-11.563-1.524-23.358-5.901-31.115-9.874-7.756-3.973-13.298-9.086-15.425-13.963-2.126-4.877-1.853-10.579 2.664-15.3s14.603-9.815 24.436-13.026c9.833-3.21 23.174-5.402 34.564-6.237s28.246.616 33.773 1.229c5.527.614-.301 1.806-.612 2.452m-52.313-2.011c10.65-2.135 27.34-1.903 39.644-1.116 12.304.787 24.814 2.752 34.177 5.836 9.362 3.084 17.53 8.013 21.998 12.666 4.467 4.654 6.376 10.527 4.809 15.252-1.567 4.725-6.713 9.155-14.212 13.099-7.499 3.944-19.326 8.509-30.781 10.566-11.454 2.057-25.913 2.606-37.947 1.777-12.034-.828-24.669-3.348-34.255-6.748-9.586-3.401-18.999-8.991-23.262-13.655-4.264-4.664-4.495-9.546-2.32-14.33 2.174-4.784 7.006-10.429 15.366-14.375 8.36-3.945 27.9-7.781 34.79-9.299 6.89-1.518 6.253-.38 6.555.191l-14.562.136zM279.749 116.562c10.839-1.755 26.669-3.139 38.738-2.12 12.068 1.019 24.983 4.732 33.673 8.237 8.69 3.504 15.337 7.948 18.466 12.79 3.13 4.842 3.09 11.063.309 16.264-2.782 5.2-8.674 11.229-16.998 14.938-8.323 3.709-21.078 6.352-32.945 7.316-11.867.963-26.479.036-38.257-1.535-11.778-1.572-23.754-4.667-32.412-7.892-8.659-3.225-16.196-6.643-19.541-11.458-3.344-4.815-3.86-12.622-.525-17.434 3.335-4.811 12.12-8.066 20.534-11.437 8.414-3.371 24.761-7.747 29.95-8.79 5.188-1.044.825 1.994 1.181 2.529m39.124-1.236c11.786.591 24.245 2.648 32.846 6.153 8.6 3.505 15.692 9.918 18.756 14.878 3.064 4.96 2.913 10.169-.373 14.881-3.286 4.713-10.411 9.901-19.343 13.394-8.932 3.494-22.39 6.42-34.25 7.568-11.86 1.148-25.279.782-36.908-.68-11.629-1.463-24.259-4.469-32.866-8.095-8.606-3.626-15.816-9.022-18.772-13.661-2.956-4.639-2.569-9.536 1.036-14.173 3.606-4.636 11.706-9.962 20.597-13.647 8.89-3.684 20.486-7.382 32.746-8.459 12.26-1.078 33.344 1.529 40.815 1.995 7.472.467 4.527.317 4.014.803l-8.298-.957z"/>
  <path stroke="#1D2021" d="M287.125 175.294c-16.37 8.08-65.769 50.766-100.145 50.284-34.376-.482-88.445-44.369-106.11-53.176m204.607 3.512c-16.644 7.882-66.579 48.924-100.603 48.683-34.024-.241-86.148-41.286-103.543-50.13"/>
  <path stroke="#1D2021" d="M111.58 181.094c-7.636-2.343-12.404-3.404-31.053-7.523m28.81 8.997c-7.779-5.453-21.375-7.552-28.332-6.797l28.332 6.797zM100.741 198.519c-5.278-5.991-7.78-10.695-20.214-24.948m17.971 26.423c-3.593-11.856-13.146-20.455-17.493-24.223l17.493 24.223zM86.364 108.506c16.661-7.87 64.908-48.791 99.097-48.515 34.19.276 88.643 41.667 106.04 50.17m-206.484-2.438c17.089-8.17 68.314-50.182 102.664-49.645 34.35.537 86.451 43.876 103.437 52.867"/>
  <path stroke="#1D2021" d="M262.058 104.337c5.736 2.423 12.11 3.439 29.736 7.388m-29.046-9.199c6.945 4.404 11.743 3.317 28.088 7.46l-28.088-7.46z"/>
  <path stroke="#1D2021" d="M273.3 87.169c3.209 5.985 7.185 10.661 18.494 24.556m-17.805-26.368c4.075 8.634 6.117 11.755 16.847 24.629l-16.847-24.629z"/>
  <path fill="#1D2021" d="M167.704 25.913h-4.698L162.07 29h-1.791l3.996-12.402h2.25L170.53 29h-1.89l-.936-3.087zm-4.284-1.431h3.87l-1.926-6.444-1.944 6.444zm32.64-6.687l4.986 5.571-4.986 5.571-1.242-1.053 2.358-2.592a10.5 10.5 0 01.621-.639 4.58 4.58 0 01.693-.54h-14.715v-1.494h14.715a4.566 4.566 0 01-.666-.495c-.168-.162-.384-.39-.648-.684l-2.358-2.592 1.242-1.053zm27.706 7.65c0 .684-.135 1.254-.405 1.71a2.984 2.984 0 01-1.08 1.089c-.45.27-.957.465-1.521.585a8.566 8.566 0 01-1.719.171h-3.456V16.598h3.195a8.57 8.57 0 011.629.153 4.55 4.55 0 011.431.504c.426.234.762.555 1.008.963.252.402.378.906.378 1.512 0 .522-.111.969-.333 1.341a2.674 2.674 0 01-.846.891c-.348.222-.72.378-1.116.468.45.078.891.222 1.323.432.438.204.798.513 1.08.927.288.408.432.96.432 1.656zm-2.358-5.598c0-.672-.21-1.149-.63-1.431-.414-.288-.987-.432-1.719-.432h-1.692v3.834h1.836c.714 0 1.26-.153 1.638-.459.378-.312.567-.816.567-1.512zm.486 5.625c0-.594-.117-1.053-.351-1.377a1.748 1.748 0 00-.927-.684 4.083 4.083 0 00-1.278-.189h-1.971v4.347h1.89c.402 0 .804-.051 1.206-.153a2.037 2.037 0 001.017-.612c.276-.3.414-.744.414-1.332zM165.801 240.445c0 .684-.135 1.254-.405 1.71a2.984 2.984 0 01-1.08 1.089c-.45.27-.957.465-1.521.585a8.566 8.566 0 01-1.719.171h-3.456v-12.402h3.195a8.57 8.57 0 011.629.153 4.55 4.55 0 011.431.504c.426.234.762.555 1.008.963.252.402.378.906.378 1.512 0 .522-.111.969-.333 1.341a2.674 2.674 0 01-.846.891c-.348.222-.72.378-1.116.468.45.078.891.222 1.323.432.438.204.798.513 1.08.927.288.408.432.96.432 1.656zm-2.358-5.598c0-.672-.21-1.149-.63-1.431-.414-.288-.987-.432-1.719-.432h-1.692v3.834h1.836c.714 0 1.26-.153 1.638-.459.378-.312.567-.816.567-1.512zm.486 5.625c0-.594-.117-1.053-.351-1.377a1.748 1.748 0 00-.927-.684 4.083 4.083 0 00-1.278-.189h-1.971v4.347h1.89c.402 0 .804-.051 1.206-.153a2.037 2.037 0 001.017-.612c.276-.3.414-.744.414-1.332zm28.131-7.677l4.986 5.571-4.986 5.571-1.242-1.053 2.358-2.592a10.5 10.5 0 01.621-.639 4.58 4.58 0 01.693-.54h-14.715v-1.494h14.715a4.566 4.566 0 01-.666-.495c-.168-.162-.384-.39-.648-.684l-2.358-2.592 1.242-1.053zm25.609 8.118h-4.698l-.936 3.087h-1.791l3.996-12.402h2.25L220.495 244h-1.89l-.936-3.087zm-4.284-1.431h3.87l-1.926-6.444-1.944 6.444z"/>
  <path fill="#076678" d="M141.04 260.848c.69 0 1.233-.126 1.629-.378.402-.252.603-.594.603-1.026 0-.276-.054-.51-.162-.702-.102-.198-.318-.378-.648-.54-.324-.168-.816-.336-1.476-.504a10.133 10.133 0 01-1.692-.567c-.474-.216-.843-.498-1.107-.846-.258-.348-.387-.798-.387-1.35 0-.804.336-1.446 1.008-1.926.672-.48 1.563-.72 2.673-.72.78 0 1.458.105 2.034.315a5.675 5.675 0 011.476.756l-.738 1.125a5.64 5.64 0 00-1.206-.594c-.432-.162-.942-.243-1.53-.243-.702 0-1.203.108-1.503.324a.98.98 0 00-.441.837c0 .264.072.483.216.657.15.168.405.324.765.468.36.138.858.294 1.494.468a9.013 9.013 0 011.62.594c.462.228.819.528 1.071.9.258.366.387.849.387 1.449 0 .678-.195 1.23-.585 1.656-.39.42-.897.729-1.521.927a6.452 6.452 0 01-1.98.297c-.864 0-1.608-.126-2.232-.378-.618-.252-1.137-.561-1.557-.927l.954-1.098c.366.306.789.555 1.269.747a4.344 4.344 0 001.566.279zm9.2-8.334v6.678c0 .6.12 1.032.36 1.296.246.258.624.387 1.134.387.48 0 .939-.141 1.377-.423a3.265 3.265 0 001.035-1.008v-6.93h1.728V262h-1.485l-.126-1.251c-.366.48-.822.846-1.368 1.098a3.859 3.859 0 01-1.647.378c-.918 0-1.605-.249-2.061-.747-.45-.498-.675-1.188-.675-2.07v-6.894h1.728zm15.446-.225c.324 0 .627.072.909.216.288.144.519.408.693.792.174.378.261.927.261 1.647V262h-1.575v-6.804c0-.552-.036-.948-.108-1.188-.066-.246-.258-.369-.576-.369-.264 0-.528.081-.792.243-.258.162-.51.432-.756.81V262h-1.512v-6.804c0-.552-.036-.948-.108-1.188-.066-.246-.258-.369-.576-.369-.27 0-.534.081-.792.243-.258.162-.51.432-.756.81V262h-1.575v-9.486h1.332l.108 1.062a4.41 4.41 0 01.873-.918c.324-.246.717-.369 1.179-.369.36 0 .693.087.999.261.312.174.54.498.684.972.258-.366.552-.663.882-.891.33-.228.732-.342 1.206-.342zm7.562-2.916c.804 0 1.491.156 2.061.468a3.19 3.19 0 011.314 1.251c.3.522.45 1.11.45 1.764 0 .558-.096 1.104-.288 1.638-.192.534-.504 1.095-.936 1.683-.426.582-.987 1.23-1.683 1.944a60.619 60.619 0 01-2.556 2.448h5.751l-.207 1.431h-7.515v-1.359a98.624 98.624 0 002.817-2.79c.732-.768 1.302-1.428 1.71-1.98.414-.558.702-1.065.864-1.521a4.19 4.19 0 00.243-1.413c0-.666-.189-1.191-.567-1.575-.372-.384-.891-.576-1.557-.576-.588 0-1.074.105-1.458.315-.384.21-.768.543-1.152.999l-1.152-.891c.486-.606 1.035-1.062 1.647-1.368.612-.312 1.35-.468 2.214-.468z"/>
  <path fill="#1D2021" d="M188.199 249.598v1.395h-2.727v9.603h2.727V262h-7.254v-1.404h2.727v-9.603h-2.727v-1.395h7.254zm6.806 11.25c.69 0 1.233-.126 1.629-.378.402-.252.603-.594.603-1.026 0-.276-.054-.51-.162-.702-.102-.198-.318-.378-.648-.54-.324-.168-.816-.336-1.476-.504a10.133 10.133 0 01-1.692-.567c-.474-.216-.843-.498-1.107-.846-.258-.348-.387-.798-.387-1.35 0-.804.336-1.446 1.008-1.926.672-.48 1.563-.72 2.673-.72.78 0 1.458.105 2.034.315a5.675 5.675 0 011.476.756l-.738 1.125a5.64 5.64 0 00-1.206-.594c-.432-.162-.942-.243-1.53-.243-.702 0-1.203.108-1.503.324a.98.98 0 00-.441.837c0 .264.072.483.216.657.15.168.405.324.765.468.36.138.858.294 1.494.468a9.013 9.013 0 011.62.594c.462.228.819.528 1.071.9.258.366.387.849.387 1.449 0 .678-.195 1.23-.585 1.656-.39.42-.897.729-1.521.927a6.452 6.452 0 01-1.98.297c-.864 0-1.608-.126-2.232-.378-.618-.252-1.137-.561-1.557-.927l.954-1.098c.366.306.789.555 1.269.747a4.344 4.344 0 001.566.279z"/>
  <path fill="#AF3A03" d="M210.505 258.535c0 .72-.183 1.359-.549 1.917-.36.552-.885.987-1.575 1.305-.684.312-1.515.468-2.493.468-.948 0-1.794-.144-2.538-.432a5.612 5.612 0 01-1.899-1.188l1.017-1.143c.432.402.927.72 1.485.954.558.234 1.209.351 1.953.351.486 0 .936-.078 1.35-.234.42-.162.756-.402 1.008-.72.258-.324.387-.729.387-1.215 0-.384-.078-.711-.234-.981-.15-.276-.417-.519-.801-.729-.384-.21-.921-.417-1.611-.621-1.26-.372-2.241-.825-2.943-1.359s-1.053-1.293-1.053-2.277c0-.642.177-1.206.531-1.692.354-.492.84-.876 1.458-1.152.618-.276 1.329-.414 2.133-.414.87 0 1.629.126 2.277.378a5.77 5.77 0 011.764 1.071l-.99 1.116a4.235 4.235 0 00-1.431-.846 4.545 4.545 0 00-1.539-.27c-.66 0-1.221.144-1.683.432-.462.282-.693.714-.693 1.296 0 .348.093.645.279.891.186.24.498.462.936.666.444.204 1.05.42 1.818.648a9.991 9.991 0 011.818.729 3.48 3.48 0 011.323 1.152c.33.48.495 1.113.495 1.899zm4.493-6.021v6.678c0 .6.12 1.032.36 1.296.246.258.624.387 1.134.387.48 0 .939-.141 1.377-.423a3.265 3.265 0 001.035-1.008v-6.93h1.728V262h-1.485l-.126-1.251c-.366.48-.822.846-1.368 1.098a3.859 3.859 0 01-1.647.378c-.918 0-1.605-.249-2.061-.747-.45-.498-.675-1.188-.675-2.07v-6.894h1.728zm15.446-.225c.324 0 .627.072.909.216.288.144.519.408.693.792.174.378.261.927.261 1.647V262h-1.575v-6.804c0-.552-.036-.948-.108-1.188-.066-.246-.258-.369-.576-.369-.264 0-.528.081-.792.243-.258.162-.51.432-.756.81V262h-1.512v-6.804c0-.552-.036-.948-.108-1.188-.066-.246-.258-.369-.576-.369-.27 0-.534.081-.792.243-.258.162-.51.432-.756.81V262h-1.575v-9.486h1.332l.108 1.062a4.41 4.41 0 01.873-.918c.324-.246.717-.369 1.179-.369.36 0 .693.087.999.261.312.174.54.498.684.972.258-.366.552-.663.882-.891.33-.228.732-.342 1.206-.342zm12.107 8.325V262h-7.308v-1.386h3.042v-9.198l-2.799 1.71-.747-1.224 3.744-2.304h1.521v11.016h2.547z"/>
  <g>
    <path fill="#AF3A03" d="M146.04 45.848c.69 0 1.233-.126 1.629-.378.402-.252.603-.594.603-1.026 0-.276-.054-.51-.162-.702-.102-.198-.318-.378-.648-.54-.324-.168-.816-.336-1.476-.504a10.133 10.133 0 01-1.692-.567c-.474-.216-.843-.498-1.107-.846-.258-.348-.387-.798-.387-1.35 0-.804.336-1.446 1.008-1.926.672-.48 1.563-.72 2.673-.72.78 0 1.458.105 2.034.315a5.675 5.675 0 011.476.756l-.738 1.125a5.64 5.64 0 00-1.206-.594c-.432-.162-.942-.243-1.53-.243-.702 0-1.203.108-1.503.324a.98.98 0 00-.441.837c0 .264.072.483.216.657.15.168.405.324.765.468.36.138.858.294 1.494.468a9.013 9.013 0 011.62.594c.462.228.819.528 1.071.9.258.366.387.849.387 1.449 0 .678-.195 1.23-.585 1.656-.39.42-.897.729-1.521.927a6.452 6.452 0 01-1.98.297c-.864 0-1.608-.126-2.232-.378-.618-.252-1.137-.561-1.557-.927l.954-1.098c.366.306.789.555 1.269.747a4.344 4.344 0 001.566.279zm9.2-8.334v6.678c0 .6.12 1.032.36 1.296.246.258.624.387 1.134.387.48 0 .939-.141 1.377-.423a3.265 3.265 0 001.035-1.008v-6.93h1.728V47h-1.485l-.126-1.251c-.366.48-.822.846-1.368 1.098a3.859 3.859 0 01-1.647.378c-.918 0-1.605-.249-2.061-.747-.45-.498-.675-1.188-.675-2.07v-6.894h1.728zm15.446-.225c.324 0 .627.072.909.216.288.144.519.408.693.792.174.378.261.927.261 1.647V47h-1.575v-6.804c0-.552-.036-.948-.108-1.188-.066-.246-.258-.369-.576-.369-.264 0-.528.081-.792.243-.258.162-.51.432-.756.81V47h-1.512v-6.804c0-.552-.036-.948-.108-1.188-.066-.246-.258-.369-.576-.369-.27 0-.534.081-.792.243-.258.162-.51.432-.756.81V47h-1.575v-9.486h1.332l.108 1.062a4.41 4.41 0 01.873-.918c.324-.246.717-.369 1.179-.369.36 0 .693.087.999.261.312.174.54.498.684.972.258-.366.552-.663.882-.891.33-.228.732-.342 1.206-.342zm12.107 8.325V47h-7.308v-1.386h3.042v-9.198l-2.799 1.71-.747-1.224 3.744-2.304h1.521v11.016h2.547z"/>
    <path fill="#1D2021" d="M193.199 34.598v1.395h-2.727v9.603h2.727V47h-7.254v-1.404h2.727v-9.603h-2.727v-1.395h7.254zm6.806 11.25c.69 0 1.233-.126 1.629-.378.402-.252.603-.594.603-1.026 0-.276-.054-.51-.162-.702-.102-.198-.318-.378-.648-.54-.324-.168-.816-.336-1.476-.504a10.133 10.133 0 01-1.692-.567c-.474-.216-.843-.498-1.107-.846-.258-.348-.387-.798-.387-1.35 0-.804.336-1.446 1.008-1.926.672-.48 1.563-.72 2.673-.72.78 0 1.458.105 2.034.315a5.675 5.675 0 011.476.756l-.738 1.125a5.64 5.64 0 00-1.206-.594c-.432-.162-.942-.243-1.53-.243-.702 0-1.203.108-1.503.324a.98.98 0 00-.441.837c0 .264.072.483.216.657.15.168.405.324.765.468.36.138.858.294 1.494.468a9.013 9.013 0 011.62.594c.462.228.819.528 1.071.9.258.366.387.849.387 1.449 0 .678-.195 1.23-.585 1.656-.39.42-.897.729-1.521.927a6.452 6.452 0 01-1.98.297c-.864 0-1.608-.126-2.232-.378-.618-.252-1.137-.561-1.557-.927l.954-1.098c.366.306.789.555 1.269.747a4.344 4.344 0 001.566.279z"/>
    <path fill="#076678" d="M215.505 43.535c0 .72-.183 1.359-.549 1.917-.36.552-.885.987-1.575 1.305-.684.312-1.515.468-2.493.468-.948 0-1.794-.144-2.538-.432a5.612 5.612 0 01-1.899-1.188l1.017-1.143c.432.402.927.72 1.485.954.558.234 1.209.351 1.953.351.486 0 .936-.078 1.35-.234.42-.162.756-.402 1.008-.72.258-.324.387-.729.387-1.215 0-.384-.078-.711-.234-.981-.15-.276-.417-.519-.801-.729-.384-.21-.921-.417-1.611-.621-1.26-.372-2.241-.825-2.943-1.359s-1.053-1.293-1.053-2.277c0-.642.177-1.206.531-1.692.354-.492.84-.876 1.458-1.152.618-.276 1.329-.414 2.133-.414.87 0 1.629.126 2.277.378a5.77 5.77 0 011.764 1.071l-.99 1.116a4.235 4.235 0 00-1.431-.846 4.545 4.545 0 00-1.539-.27c-.66 0-1.221.144-1.683.432-.462.282-.693.714-.693 1.296 0 .348.093.645.279.891.186.24.498.462.936.666.444.204 1.05.42 1.818.648a9.991 9.991 0 011.818.729 3.48 3.48 0 011.323 1.152c.33.48.495 1.113.495 1.899zm4.493-6.021v6.678c0 .6.12 1.032.36 1.296.246.258.624.387 1.134.387.48 0 .939-.141 1.377-.423a3.265 3.265 0 001.035-1.008v-6.93h1.728V47h-1.485l-.126-1.251c-.366.48-.822.846-1.368 1.098a3.859 3.859 0 01-1.647.378c-.918 0-1.605-.249-2.061-.747-.45-.498-.675-1.188-.675-2.07v-6.894h1.728zm15.446-.225c.324 0 .627.072.909.216.288.144.519.408.693.792.174.378.261.927.261 1.647V47h-1.575v-6.804c0-.552-.036-.948-.108-1.188-.066-.246-.258-.369-.576-.369-.264 0-.528.081-.792.243-.258.162-.51.432-.756.81V47h-1.512v-6.804c0-.552-.036-.948-.108-1.188-.066-.246-.258-.369-.576-.369-.27 0-.534.081-.792.243-.258.162-.51.432-.756.81V47h-1.575v-9.486h1.332l.108 1.062a4.41 4.41 0 01.873-.918c.324-.246.717-.369 1.179-.369.36 0 .693.087.999.261.312.174.54.498.684.972.258-.366.552-.663.882-.891.33-.228.732-.342 1.206-.342zm7.562-2.916c.804 0 1.491.156 2.061.468a3.19 3.19 0 011.314 1.251c.3.522.45 1.11.45 1.764 0 .558-.096 1.104-.288 1.638-.192.534-.504 1.095-.936 1.683-.426.582-.987 1.23-1.683 1.944a60.619 60.619 0 01-2.556 2.448h5.751L246.912 47h-7.515v-1.359a98.624 98.624 0 002.817-2.79c.732-.768 1.302-1.428 1.71-1.98.414-.558.702-1.065.864-1.521a4.19 4.19 0 00.243-1.413c0-.666-.189-1.191-.567-1.575-.372-.384-.891-.576-1.557-.576-.588 0-1.074.105-1.458.315-.384.21-.768.543-1.152.999l-1.152-.891c.486-.606 1.035-1.062 1.647-1.368.612-.312 1.35-.468 2.214-.468z"/>
  </g>
  <path fill="#1D2021" d="M83.564 131.57h-5.22l-1.04 3.43h-1.99l4.44-13.78h2.5l4.45 13.78h-2.1l-1.04-3.43zm-4.76-1.59h4.3l-2.14-7.16-2.16 7.16zM305.894 133.05c0 .76-.15 1.393-.45 1.9-.293.507-.693.91-1.2 1.21-.5.3-1.063.517-1.69.65-.62.127-1.257.19-1.91.19h-3.84v-13.78h3.55c.62 0 1.223.057 1.81.17a5.05 5.05 0 011.59.56c.473.26.847.617 1.12 1.07.28.447.42 1.007.42 1.68 0 .58-.123 1.077-.37 1.49-.24.407-.553.737-.94.99-.387.247-.8.42-1.24.52.5.087.99.247 1.47.48.487.227.887.57 1.2 1.03.32.453.48 1.067.48 1.84zm-2.62-6.22c0-.747-.233-1.277-.7-1.59-.46-.32-1.097-.48-1.91-.48h-1.88v4.26h2.04c.793 0 1.4-.17 1.82-.51.42-.347.63-.907.63-1.68zm.54 6.25c0-.66-.13-1.17-.39-1.53a1.94 1.94 0 00-1.03-.76c-.427-.14-.9-.21-1.42-.21h-2.19v4.83h2.1c.447 0 .893-.057 1.34-.17.453-.12.83-.347 1.13-.68.307-.333.46-.827.46-1.48z"/>
  <path fill="#AF3A03" d="M62.6 155.72c.767 0 1.37-.14 1.81-.42.447-.28.67-.66.67-1.14 0-.307-.06-.567-.18-.78-.113-.22-.353-.42-.72-.6-.36-.187-.907-.373-1.64-.56-.72-.18-1.347-.39-1.88-.63-.527-.24-.937-.553-1.23-.94-.287-.387-.43-.887-.43-1.5 0-.893.373-1.607 1.12-2.14.747-.533 1.737-.8 2.97-.8.867 0 1.62.117 2.26.35.64.227 1.187.507 1.64.84l-.82 1.25a6.236 6.236 0 00-1.34-.66c-.48-.18-1.047-.27-1.7-.27-.78 0-1.337.12-1.67.36-.327.233-.49.543-.49.93 0 .293.08.537.24.73.167.187.45.36.85.52.4.153.953.327 1.66.52.687.187 1.287.407 1.8.66.513.253.91.587 1.19 1 .287.407.43.943.43 1.61 0 .753-.217 1.367-.65 1.84-.433.467-.997.81-1.69 1.03a7.17 7.17 0 01-2.2.33c-.96 0-1.787-.14-2.48-.42-.687-.28-1.263-.623-1.73-1.03l1.06-1.22c.407.34.877.617 1.41.83.54.207 1.12.31 1.74.31zm10.222-9.26v7.42c0 .667.133 1.147.4 1.44.274.287.694.43 1.26.43.534 0 1.043-.157 1.53-.47a3.628 3.628 0 001.15-1.12v-7.7h1.92V157h-1.65l-.14-1.39c-.407.533-.913.94-1.52 1.22-.6.28-1.21.42-1.83.42-1.02 0-1.783-.277-2.29-.83-.5-.553-.75-1.32-.75-2.3v-7.66h1.92zm17.162-.25c.36 0 .697.08 1.01.24.32.16.577.453.77.88.194.42.29 1.03.29 1.83V157h-1.75v-7.56c0-.613-.04-1.053-.12-1.32-.073-.273-.286-.41-.64-.41-.293 0-.586.09-.88.27-.286.18-.566.48-.84.9V157h-1.68v-7.56c0-.613-.04-1.053-.12-1.32-.073-.273-.286-.41-.64-.41-.3 0-.593.09-.88.27-.286.18-.566.48-.84.9V157h-1.75v-10.54h1.48l.12 1.18c.294-.407.617-.747.97-1.02.36-.273.797-.41 1.31-.41.4 0 .77.097 1.11.29.347.193.6.553.76 1.08.287-.407.614-.737.98-.99.367-.253.814-.38 1.34-.38zm13.453 9.25V157h-8.12v-1.54h3.38v-10.22l-3.11 1.9-.83-1.36 4.16-2.56h1.69v12.24h2.83z"/>
  <path fill="#076678" d="M282.6 157.72c.767 0 1.37-.14 1.81-.42.447-.28.67-.66.67-1.14 0-.307-.06-.567-.18-.78-.113-.22-.353-.42-.72-.6-.36-.187-.907-.373-1.64-.56-.72-.18-1.347-.39-1.88-.63-.527-.24-.937-.553-1.23-.94-.287-.387-.43-.887-.43-1.5 0-.893.373-1.607 1.12-2.14.747-.533 1.737-.8 2.97-.8.867 0 1.62.117 2.26.35.64.227 1.187.507 1.64.84l-.82 1.25a6.236 6.236 0 00-1.34-.66c-.48-.18-1.047-.27-1.7-.27-.78 0-1.337.12-1.67.36-.327.233-.49.543-.49.93 0 .293.08.537.24.73.167.187.45.36.85.52.4.153.953.327 1.66.52.687.187 1.287.407 1.8.66.513.253.91.587 1.19 1 .287.407.43.943.43 1.61 0 .753-.217 1.367-.65 1.84-.433.467-.997.81-1.69 1.03a7.17 7.17 0 01-2.2.33c-.96 0-1.787-.14-2.48-.42-.687-.28-1.263-.623-1.73-1.03l1.06-1.22c.407.34.877.617 1.41.83.54.207 1.12.31 1.74.31zm10.222-9.26v7.42c0 .667.134 1.147.4 1.44.274.287.694.43 1.26.43.534 0 1.044-.157 1.53-.47a3.617 3.617 0 001.15-1.12v-7.7h1.92V159h-1.65l-.14-1.39a3.98 3.98 0 01-1.52 1.22c-.6.28-1.21.42-1.83.42-1.02 0-1.783-.277-2.29-.83-.5-.553-.75-1.32-.75-2.3v-7.66h1.92zm17.162-.25c.36 0 .697.08 1.01.24.32.16.577.453.77.88.194.42.29 1.03.29 1.83V159h-1.75v-7.56c0-.613-.04-1.053-.12-1.32-.073-.273-.286-.41-.64-.41-.293 0-.586.09-.88.27-.286.18-.566.48-.84.9V159h-1.68v-7.56c0-.613-.04-1.053-.12-1.32-.073-.273-.286-.41-.64-.41-.3 0-.593.09-.88.27-.286.18-.566.48-.84.9V159h-1.75v-10.54h1.48l.12 1.18a4.91 4.91 0 01.97-1.02c.36-.273.797-.41 1.31-.41.4 0 .77.097 1.11.29.347.193.6.553.76 1.08a3.96 3.96 0 01.98-.99c.367-.253.814-.38 1.34-.38zm8.403-3.24c.893 0 1.656.173 2.29.52.64.34 1.126.803 1.46 1.39.333.58.5 1.233.5 1.96 0 .62-.107 1.227-.32 1.82-.214.593-.56 1.217-1.04 1.87-.474.647-1.097 1.367-1.87 2.16-.774.793-1.72 1.7-2.84 2.72h6.39l-.23 1.59h-8.35v-1.51a110.468 110.468 0 003.13-3.1c.813-.853 1.446-1.587 1.9-2.2.46-.62.78-1.183.96-1.69.18-.507.27-1.03.27-1.57 0-.74-.21-1.323-.63-1.75-.414-.427-.99-.64-1.73-.64-.654 0-1.194.117-1.62.35-.427.233-.854.603-1.28 1.11l-1.28-.99c.54-.673 1.15-1.18 1.83-1.52.68-.347 1.5-.52 2.46-.52z"/>
</svg>
