<svg xmlns="http://www.w3.org/2000/svg" width="16" height="15" fill="none" viewBox="0 0 16 15">
  <path fill="#fff" fill-opacity=".25" fill-rule="evenodd" d="M8 0C3.581 0 0 3.443 0 7.69c0 3.397 2.292 6.28 5.471 7.297.4.07.546-.167.546-.371 0-.182-.007-.666-.01-1.308-2.226.465-2.695-1.03-2.695-1.03-.364-.89-.889-1.126-.889-1.126-.726-.477.055-.467.055-.467.803.054 1.225.792 1.225.792.714 1.175 1.873.836 2.329.64.073-.497.279-.836.508-1.029-1.777-.193-3.644-.853-3.644-3.8 0-.84.311-1.526.823-2.064-.082-.194-.357-.976.078-2.035 0 0 .672-.206 2.2.789A7.931 7.931 0 018 3.719c.68.003 1.364.088 2.003.259 1.527-.995 2.198-.789 2.198-.789.436 1.06.162 1.84.08 2.035.512.538.822 1.224.822 2.064 0 2.954-1.87 3.604-3.653 3.794.287.238.543.707.543 1.425 0 1.027-.01 1.857-.01 2.109 0 .206.144.445.55.37C13.71 13.966 16 11.086 16 7.69 16 3.443 12.418 0 8 0"/>
</svg>
