<svg xmlns="http://www.w3.org/2000/svg" width="16" height="13" fill="none" viewBox="0 0 16 13">
  <path fill="#fff" fill-opacity=".25" d="M5.052 12.947c5.998 0 9.277-4.96 9.277-9.261 0-.141-.003-.281-.009-.421a6.625 6.625 0 001.627-1.686 6.512 6.512 0 01-1.873.513 3.267 3.267 0 001.434-1.8 6.546 6.546 0 01-2.07.79 3.26 3.26 0 00-2.38-1.029A3.258 3.258 0 007.88 4.05 9.264 9.264 0 011.159.65a3.25 3.25 0 001.01 4.345 3.241 3.241 0 01-1.477-.408v.042a3.257 3.257 0 002.616 3.19 3.27 3.27 0 01-1.473.057 3.263 3.263 0 003.046 2.26 6.55 6.55 0 01-4.05 1.394 6.62 6.62 0 01-.778-.045 9.242 9.242 0 004.999 1.462"/>
</svg>
