<svg xmlns="http://www.w3.org/2000/svg" width="164" height="46" fill="none" viewBox="0 0 164 46">
  <mask id="a" fill="#fff">
    <path fill-rule="evenodd" d="M7 22.5L16 45h133l9-22.5L149 0H16L7 22.5zm9 8.5l9 9h114l9-9-9-9H25l-9 9z" clip-rule="evenodd"/>
  </mask>
  <path fill="#076678" fill-rule="evenodd" d="M7 22.5L16 45h133l9-22.5L149 0H16L7 22.5zm9 8.5l9 9h114l9-9-9-9H25l-9 9z" clip-rule="evenodd"/>
  <path fill="#000" fill-opacity=".25" d="M16 45l-.928.371.251.629H16v-1zM7 22.5l-.928-.371-.149.371.149.371L7 22.5zM149 45v1h.677l.251-.629L149 45zm9-22.5l.928.371.149-.371-.149-.371-.928.371zM149 0l.928-.371-.251-.629H149v1zM16 0v-1h-.677l-.252.629L16 0zm9 40l-.707.707.293.293H25v-1zm-9-9l-.707-.707-.707.707.707.707L16 31zm123 9v1h.414l.293-.293L139 40zm9-9l.707.707.707-.707-.707-.707L148 31zm-9-9l.707-.707-.293-.293H139v1zM25 22v-1h-.414l-.293.293L25 22zm-8.072 22.629l-9-22.5-1.856.742 9 22.5 1.857-.742zM149 44H16v2h133v-2zm8.072-21.871l-9 22.5 1.856.742 9-22.5-1.856-.742zm-9-21.758l9 22.5 1.856-.742-9-22.5-1.856.742zM16 1h133v-2H16v2zM7.928 22.871l9-22.5-1.857-.742-9 22.5 1.857.742zm17.78 16.422l-9-9-1.415 1.414 9 9 1.414-1.414zM139 39H25v2h114v-2zm8.293-8.707l-9 9 1.414 1.414 9-9-1.414-1.414zm-9-7.586l9 9 1.414-1.414-9-9-1.414 1.414zM25 23h114v-2H25v2zm-8.293 8.707l9-9-1.414-1.414-9 9 1.414 1.414z" mask="url(#a)"/>
  <g filter="url(#filter0_d)">
    <path fill="#FBF1C7" d="M21.4 9.526c.216 0 .418.048.606.144.192.096.346.272.462.528.116.252.174.618.174 1.098V16h-1.05v-4.536c0-.368-.024-.632-.072-.792-.044-.164-.172-.246-.384-.246-.176 0-.352.054-.528.162-.172.108-.34.288-.504.54V16h-1.008v-4.536c0-.368-.024-.632-.072-.792-.044-.164-.172-.246-.384-.246a.982.982 0 00-.528.162c-.172.108-.34.288-.504.54V16h-1.05V9.676h.888l.072.708a2.94 2.94 0 01.582-.612c.216-.164.478-.246.786-.246.24 0 .462.058.666.174.208.116.36.332.456.648.172-.244.368-.442.588-.594a1.38 1.38 0 01.804-.228zm5.407 0c.904 0 1.59.3 2.058.9.472.6.708 1.402.708 2.406 0 .652-.108 1.228-.324 1.728-.212.5-.524.89-.936 1.17-.412.28-.918.42-1.518.42-.904 0-1.594-.3-2.07-.9-.472-.6-.708-1.402-.708-2.406 0-.656.106-1.232.318-1.728.216-.5.53-.89.942-1.17.416-.28.926-.42 1.53-.42zm0 .918c-.52 0-.912.196-1.176.588-.264.388-.396.992-.396 1.812 0 .812.13 1.414.39 1.806.26.388.65.582 1.17.582.52 0 .91-.194 1.17-.582.26-.392.39-.998.39-1.818 0-.816-.13-1.418-.39-1.806-.26-.388-.646-.582-1.158-.582zm10.118-.768L34.657 16h-1.344l-2.256-6.324h1.224l1.734 5.322 1.728-5.322h1.182zm2.737 3.552c.032.696.22 1.202.564 1.518.348.316.76.474 1.236.474.316 0 .606-.048.87-.144a3.7 3.7 0 00.804-.42l.522.726a3.58 3.58 0 01-2.232.768c-.632 0-1.17-.138-1.614-.414a2.702 2.702 0 01-1.008-1.164c-.228-.496-.342-1.072-.342-1.728 0-.636.114-1.204.342-1.704.232-.5.558-.894.978-1.182.42-.288.92-.432 1.5-.432.816 0 1.458.28 1.926.84.472.556.708 1.318.708 2.286 0 .108-.002.212-.006.312s-.01.188-.018.264h-4.23zm1.632-2.802c-.452 0-.826.16-1.122.48-.296.32-.466.814-.51 1.482h3.144c-.012-.64-.152-1.126-.42-1.458-.264-.336-.628-.504-1.092-.504zm8.39-3.432l1.151.138V16h-1.014l-.096-.81c-.448.64-1.044.96-1.788.96-.544 0-.994-.138-1.35-.414-.352-.28-.614-.668-.786-1.164-.172-.496-.258-1.072-.258-1.728 0-.64.098-1.208.294-1.704.2-.5.484-.894.852-1.182.372-.288.82-.432 1.344-.432.68 0 1.23.24 1.65.72V6.994zm-1.35 3.438c-.497 0-.88.198-1.153.594-.268.396-.402 1.002-.402 1.818 0 .812.122 1.414.366 1.806a1.19 1.19 0 001.068.588c.332 0 .618-.094.858-.282.244-.192.448-.416.612-.672v-3.09a1.79 1.79 0 00-.594-.558 1.448 1.448 0 00-.756-.204z"/>
    <path fill="#8EC07C" d="M62.418 7.582c.536 0 .994.104 1.374.312.384.204.676.482.876.834.2.348.3.74.3 1.176 0 .372-.064.736-.192 1.092-.128.356-.336.73-.624 1.122-.284.388-.658.82-1.122 1.296a40.413 40.413 0 01-1.704 1.632h3.834l-.138.954h-5.01v-.906a65.75 65.75 0 001.878-1.86c.488-.512.868-.952 1.14-1.32.276-.372.468-.71.576-1.014.108-.304.162-.618.162-.942 0-.444-.126-.794-.378-1.05-.248-.256-.594-.384-1.038-.384-.392 0-.716.07-.972.21-.256.14-.512.362-.768.666l-.768-.594c.324-.404.69-.708 1.098-.912.408-.208.9-.312 1.476-.312zm7.55 0c.903 0 1.587.372 2.051 1.116.468.74.702 1.794.702 3.162 0 1.372-.234 2.43-.702 3.174-.464.744-1.148 1.116-2.052 1.116-.904 0-1.59-.372-2.058-1.116-.464-.744-.696-1.802-.696-3.174 0-1.368.232-2.422.696-3.162.468-.744 1.154-1.116 2.058-1.116zm0 .906c-.493 0-.879.262-1.159.786-.276.524-.414 1.386-.414 2.586 0 .888.062 1.584.186 2.088l2.448-4.95c-.24-.34-.594-.51-1.062-.51zm1.571 3.372c0-.86-.058-1.536-.174-2.028l-2.43 4.938c.24.316.584.474 1.032.474.5 0 .886-.262 1.158-.786.276-.528.414-1.394.414-2.598zm5.623-4.278c.904 0 1.588.372 2.052 1.116.469.74.703 1.794.703 3.162 0 1.372-.234 2.43-.703 3.174-.463.744-1.147 1.116-2.052 1.116-.904 0-1.59-.372-2.058-1.116-.463-.744-.695-1.802-.695-3.174 0-1.368.231-2.422.695-3.162.469-.744 1.154-1.116 2.058-1.116zm0 .906c-.492 0-.878.262-1.158.786-.276.524-.413 1.386-.413 2.586 0 .888.062 1.584.186 2.088l2.448-4.95c-.24-.34-.594-.51-1.063-.51zm1.572 3.372c0-.86-.057-1.536-.173-2.028l-2.43 4.938c.24.316.584.474 1.031.474.5 0 .886-.262 1.158-.786.277-.528.415-1.394.415-2.598zm15.495 3.216V16h-4.872v-.924h2.028V8.944l-1.866 1.14-.498-.816 2.496-1.536h1.014v7.344h1.698zm4.52-7.494c.903 0 1.587.372 2.051 1.116.468.74.702 1.794.702 3.162 0 1.372-.234 2.43-.702 3.174-.464.744-1.148 1.116-2.052 1.116-.904 0-1.59-.372-2.058-1.116-.464-.744-.696-1.802-.696-3.174 0-1.368.232-2.422.696-3.162.468-.744 1.154-1.116 2.058-1.116zm0 .906c-.493 0-.879.262-1.159.786-.276.524-.414 1.386-.414 2.586 0 .888.062 1.584.186 2.088l2.448-4.95c-.24-.34-.594-.51-1.062-.51zm1.571 3.372c0-.86-.058-1.536-.174-2.028l-2.43 4.938c.24.316.584.474 1.032.474.5 0 .886-.262 1.158-.786.276-.528.414-1.394.414-2.598zm5.624-4.278c.904 0 1.588.372 2.052 1.116.468.74.702 1.794.702 3.162 0 1.372-.234 2.43-.702 3.174-.464.744-1.148 1.116-2.052 1.116-.904 0-1.59-.372-2.058-1.116-.464-.744-.696-1.802-.696-3.174 0-1.368.232-2.422.696-3.162.468-.744 1.154-1.116 2.058-1.116zm0 .906c-.492 0-.878.262-1.158.786-.276.524-.414 1.386-.414 2.586 0 .888.062 1.584.186 2.088l2.448-4.95c-.24-.34-.594-.51-1.062-.51zm1.572 3.372c0-.86-.058-1.536-.174-2.028l-2.43 4.938c.24.316.584.474 1.032.474.5 0 .886-.262 1.158-.786.276-.528.414-1.394.414-2.598z"/>
  </g>
  <g>
    <rect width="124" height="18" x="20" y="22" fill="#8F3F71" rx="9"/>
    <rect width="123" height="17" x="20.5" y="22.5" stroke="#000" stroke-opacity=".25" rx="8.5"/>
    <g filter="url(#filter1_d)">
      <path fill="#FBF1C7" d="M29.206 35v-.852h.96v-4.62h-.96v-.852h1.842l.21 1.482c.24-.524.534-.926.882-1.206.352-.284.808-.426 1.368-.426a2.5 2.5 0 01.486.042c.144.028.29.064.438.108l-.18 2.22h-.888v-1.32h-.006c-.948 0-1.628.678-2.04 2.034v2.538h1.284V35h-3.396zm8.065-2.772c.032.696.22 1.202.564 1.518.348.316.76.474 1.236.474.316 0 .606-.048.87-.144a3.7 3.7 0 00.804-.42l.522.726a3.58 3.58 0 01-2.232.768c-.632 0-1.17-.138-1.614-.414a2.702 2.702 0 01-1.008-1.164c-.228-.496-.342-1.072-.342-1.728 0-.636.114-1.204.342-1.704.232-.5.558-.894.978-1.182.42-.288.92-.432 1.5-.432.816 0 1.458.28 1.926.84.472.556.708 1.318.708 2.286 0 .108-.002.212-.006.312s-.01.188-.018.264h-4.23zm1.632-2.802c-.452 0-.826.16-1.122.48-.296.32-.466.814-.51 1.482h3.144c-.012-.64-.152-1.126-.42-1.458-.264-.336-.628-.504-1.092-.504zm7.574 4.752c.308 0 .594-.05.858-.15.268-.104.518-.238.75-.402l.552.75c-.28.232-.616.42-1.008.564-.388.14-.778.21-1.17.21-.636 0-1.18-.136-1.632-.408a2.645 2.645 0 01-1.026-1.146c-.236-.492-.354-1.068-.354-1.728 0-.64.118-1.21.354-1.71.24-.504.586-.902 1.038-1.194.452-.292.998-.438 1.638-.438.824 0 1.54.248 2.148.744l-.546.75c-.532-.368-1.064-.552-1.596-.552-.528 0-.96.196-1.296.588-.336.392-.504.996-.504 1.812 0 .82.168 1.41.504 1.77.34.36.77.54 1.29.54zm9.39.498a2.84 2.84 0 01-.81.342 3.476 3.476 0 01-.947.132c-.704 0-1.244-.184-1.62-.552-.372-.368-.558-.846-.558-1.434V29.54h-1.434v-.864h1.434v-1.428l1.152-.138v1.566h2.16l-.132.864h-2.028v3.612c0 .348.088.61.264.786.18.176.478.264.894.264.232 0 .446-.026.642-.078.2-.056.384-.13.552-.222l.432.774zm6.722-1.128c0 .252.04.436.12.552a.72.72 0 00.378.252l-.27.792a1.824 1.824 0 01-.756-.258c-.212-.136-.368-.344-.468-.624a2.118 2.118 0 01-.864.666 2.867 2.867 0 01-1.134.222c-.636 0-1.138-.18-1.506-.54-.368-.36-.552-.834-.552-1.422 0-.656.256-1.16.768-1.512.516-.356 1.256-.534 2.22-.534h.918v-.48c0-.436-.13-.746-.39-.93-.256-.184-.614-.276-1.074-.276-.212 0-.462.026-.75.078a6.257 6.257 0 00-.912.246l-.294-.84a6.202 6.202 0 011.122-.318c.36-.064.696-.096 1.008-.096.812 0 1.42.186 1.824.558.408.372.612.878.612 1.518v2.946zm-2.67.738c.292 0 .574-.076.846-.228.276-.152.502-.364.678-.636v-1.53h-.84c-.668 0-1.142.114-1.422.342-.28.224-.42.532-.42.924 0 .752.386 1.128 1.158 1.128zm5.204.714v-6.324h.99l.084.852a2.6 2.6 0 01.948-.744 2.68 2.68 0 011.122-.258c.608 0 1.056.166 1.344.498.288.328.432.786.432 1.374V35H68.89v-3.894a5.3 5.3 0 00-.072-.972c-.044-.248-.138-.428-.282-.54-.144-.116-.362-.174-.654-.174-.344 0-.656.106-.936.318-.28.212-.504.44-.672.684V35h-1.152zm12.415-7.056l.336 1.02a3.785 3.785 0 01-.852.162c-.3.024-.632.036-.996.036.748.336 1.122.868 1.122 1.596 0 .624-.216 1.138-.648 1.542-.428.404-1.022.606-1.782.606-.2 0-.37-.008-.51-.024-.14-.02-.274-.05-.402-.09a.672.672 0 00-.306.576c0 .14.056.26.168.36.112.096.33.144.654.144h1.122c.436 0 .824.076 1.164.228.344.152.614.36.81.624.196.26.294.554.294.882 0 .628-.268 1.11-.804 1.446-.532.34-1.292.51-2.28.51-.696 0-1.244-.072-1.644-.216-.396-.144-.678-.358-.846-.642-.164-.284-.246-.64-.246-1.068h1.038c0 .236.046.43.138.582.092.156.26.27.504.342.244.076.596.114 1.056.114.68 0 1.17-.084 1.47-.252.3-.168.45-.414.45-.738a.71.71 0 00-.378-.648c-.252-.144-.574-.216-.966-.216h-1.11c-.568 0-.986-.12-1.254-.36-.264-.24-.396-.52-.396-.84 0-.444.232-.818.696-1.122-.716-.376-1.074-.962-1.074-1.758 0-.432.108-.814.324-1.146a2.22 2.22 0 01.912-.786c.388-.188.834-.282 1.338-.282.524 0 .954-.024 1.29-.072.336-.048.626-.116.87-.204.244-.088.49-.19.738-.306zm-2.892 1.398c-.476 0-.83.132-1.062.396-.228.26-.342.594-.342 1.002 0 .416.118.754.354 1.014s.594.39 1.074.39c.424 0 .748-.124.972-.372.224-.248.336-.596.336-1.044 0-.924-.444-1.386-1.332-1.386zm7.465-3.21v7.236c0 .304.094.52.282.648.188.124.43.186.726.186.188 0 .366-.018.534-.054.172-.04.34-.094.504-.162l.3.822a3.114 3.114 0 01-.66.24 3.59 3.59 0 01-.894.102c-.596 0-1.07-.166-1.422-.498-.348-.332-.522-.788-.522-1.368v-6.276h-1.926v-.876h3.078zm5.527 6.096c.032.696.22 1.202.564 1.518.349.316.76.474 1.237.474.316 0 .606-.048.87-.144a3.7 3.7 0 00.803-.42l.523.726a3.58 3.58 0 01-2.233.768c-.632 0-1.17-.138-1.614-.414a2.702 2.702 0 01-1.007-1.164c-.229-.496-.343-1.072-.343-1.728 0-.636.114-1.204.343-1.704.231-.5.557-.894.977-1.182.42-.288.92-.432 1.5-.432.817 0 1.459.28 1.927.84.471.556.707 1.318.707 2.286 0 .108-.001.212-.005.312-.005.1-.01.188-.019.264h-4.23zm1.632-2.802c-.451 0-.825.16-1.121.48-.296.32-.466.814-.51 1.482h3.144c-.013-.64-.153-1.126-.42-1.458-.264-.336-.629-.504-1.093-.504z"/>
      <path fill="#8EC07C" d="M105.851 26.732l-.162.888h-3.228v2.478a2.77 2.77 0 01.702-.264 3.12 3.12 0 01.696-.078c.668 0 1.212.228 1.632.684.424.456.636 1.098.636 1.926 0 .552-.118 1.038-.354 1.458a2.51 2.51 0 01-1.002.978c-.428.232-.932.348-1.512.348-.516 0-.976-.092-1.38-.276a3.581 3.581 0 01-1.074-.762l.696-.666c.48.512 1.06.768 1.74.768.528 0 .94-.16 1.236-.48.3-.32.45-.782.45-1.386 0-.64-.138-1.084-.414-1.332a1.449 1.449 0 00-1.014-.378c-.232 0-.44.024-.624.072a4.662 4.662 0 00-.624.204h-.888v-4.182h4.488zm4.897-.15c.904 0 1.588.372 2.052 1.116.468.74.702 1.794.702 3.162 0 1.372-.234 2.43-.702 3.174-.464.744-1.148 1.116-2.052 1.116-.904 0-1.59-.372-2.058-1.116-.464-.744-.696-1.802-.696-3.174 0-1.368.232-2.422.696-3.162.468-.744 1.154-1.116 2.058-1.116zm0 .906c-.492 0-.878.262-1.158.786-.276.524-.414 1.386-.414 2.586 0 .888.062 1.584.186 2.088l2.448-4.95c-.24-.34-.594-.51-1.062-.51zm1.572 3.372c0-.86-.058-1.536-.174-2.028l-2.43 4.938c.24.316.584.474 1.032.474.5 0 .886-.262 1.158-.786.276-.528.414-1.394.414-2.598zm12.447-4.278c.532 0 .99.096 1.374.288.388.188.686.44.894.756.212.312.318.656.318 1.032 0 .508-.16.936-.48 1.284a2.095 2.095 0 01-1.146.654c.332.032.642.126.93.282.288.156.52.38.696.672.176.288.264.646.264 1.074 0 .476-.122.906-.366 1.29-.244.38-.586.682-1.026.906-.436.22-.946.33-1.53.33-.488 0-.964-.09-1.428-.27a2.876 2.876 0 01-1.176-.858l.744-.624c.232.276.508.482.828.618.324.132.654.198.99.198.548 0 .978-.142 1.29-.426.316-.288.474-.682.474-1.182 0-.568-.156-.962-.468-1.182-.312-.224-.71-.336-1.194-.336h-.702l.138-.876h.492c.264 0 .512-.05.744-.15.232-.1.42-.252.564-.456.144-.204.216-.464.216-.78 0-.432-.146-.762-.438-.99-.292-.232-.648-.348-1.068-.348-.352 0-.662.064-.93.192a3.078 3.078 0 00-.804.564l-.624-.684a3.481 3.481 0 012.424-.978zm7.567 0c.904 0 1.588.372 2.052 1.116.468.74.702 1.794.702 3.162 0 1.372-.234 2.43-.702 3.174-.464.744-1.148 1.116-2.052 1.116-.904 0-1.59-.372-2.058-1.116-.464-.744-.696-1.802-.696-3.174 0-1.368.232-2.422.696-3.162.468-.744 1.154-1.116 2.058-1.116zm0 .906c-.492 0-.878.262-1.158.786-.276.524-.414 1.386-.414 2.586 0 .888.062 1.584.186 2.088l2.448-4.95c-.24-.34-.594-.51-1.062-.51zm1.572 3.372c0-.86-.058-1.536-.174-2.028l-2.43 4.938c.24.316.584.474 1.032.474.5 0 .886-.262 1.158-.786.276-.528.414-1.394.414-2.598z"/>
    </g>
  </g>
  <path fill="#FABD2F" stroke="#B57614" d="M148 26.896L153.4 13h6.6l-5.4 9.667h8.4l-7.2 13.291h4.2L151.6 41l-3.6-5.042h3.6l4.2-9.062H148zM1 30.896L6.4 17H13l-5.4 9.667H16L8.8 39.958H13L4.6 45 1 39.958h3.6l4.2-9.062H1z"/>
  <defs>
    <filter id="filter0_d" width="92.14" height="10.156" x="16.558" y="6.994" color-interpolation-filters="sRGB" filterUnits="userSpaceOnUse">
      <feFlood flood-opacity="0" result="BackgroundImageFix"/>
      <feColorMatrix in="SourceAlpha" values="0 0 0 0 0 0 0 0 0 0 0 0 0 0 0 0 0 0 127 0"/>
      <feOffset dy="1"/>
      <feColorMatrix values="0 0 0 0 0 0 0 0 0 0 0 0 0 0 0 0 0 0 0.25 0"/>
      <feBlend in2="BackgroundImageFix" result="effect1_dropShadow"/>
      <feBlend in="SourceGraphic" in2="effect1_dropShadow" result="shape"/>
    </filter>
    <filter id="filter1_d" width="105.882" height="12.43" x="29.206" y="26.132" color-interpolation-filters="sRGB" filterUnits="userSpaceOnUse">
      <feFlood flood-opacity="0" result="BackgroundImageFix"/>
      <feColorMatrix in="SourceAlpha" values="0 0 0 0 0 0 0 0 0 0 0 0 0 0 0 0 0 0 127 0"/>
      <feOffset dy="1"/>
      <feColorMatrix values="0 0 0 0 0 0 0 0 0 0 0 0 0 0 0 0 0 0 0.25 0"/>
      <feBlend in2="BackgroundImageFix" result="effect1_dropShadow"/>
      <feBlend in="SourceGraphic" in2="effect1_dropShadow" result="shape"/>
    </filter>
  </defs>
</svg>
