<svg xmlns="http://www.w3.org/2000/svg" width="120" height="120" fill="none" viewBox="0 0 120 120">
  <path fill="#A89984" stroke="#D5C4A1" stroke-linejoin="round" stroke-width="6" d="M12 108V48l48-36 48 36v60H12z"/>
  <path fill="#EBEBEB" stroke="#EBEBEB" stroke-width="6" d="M30 24v72h60V24H30z"/>
  <path fill="#665C54" d="M53.334 40.093a13.923 13.923 0 016.992-1.85c2.576 0 4.53.575 5.862 1.724 1.36 1.15 2.041 2.706 2.041 4.669v8.2c0 .673.217 1.192.652 1.556.463.337.998.505 1.606.505 1.448 0 2.403-.799 2.866-2.397.493-1.598.739-3.252.739-4.963 0-3.616-.637-6.448-1.911-8.495-1.274-2.075-2.938-3.533-4.994-4.374-2.027-.869-4.212-1.303-6.557-1.303-4.43 0-8.005 1.29-10.727 3.869-2.692 2.58-4.038 6.168-4.038 10.766 0 3.392.724 6.168 2.171 8.327 1.448 2.159 3.315 3.743 5.602 4.752a17.355 17.355 0 007.252 1.556c1.448 0 2.968-.182 4.56-.546 1.621-.365 3.069-.981 4.343-1.85l1.563 2.733c-1.419.897-3.083 1.626-4.994 2.187-1.91.56-3.937.841-6.08.841-3.358 0-6.427-.715-9.206-2.145a16.8 16.8 0 01-6.6-6.098C42.825 55.15 42 52.037 42 48.421c0-3.421.767-6.52 2.302-9.295 1.563-2.804 3.72-5.018 6.47-6.645C53.552 30.827 56.779 30 60.456 30c2.721 0 5.428.533 8.12 1.598 2.722 1.038 4.966 2.734 6.732 5.089C77.102 39.014 78 42.112 78 45.98c0 1.823-.26 3.66-.782 5.51-.52 1.822-1.404 3.35-2.649 4.584-1.245 1.233-2.938 1.85-5.08 1.85-1.535 0-2.838-.35-3.909-1.051-1.071-.701-1.708-1.654-1.91-2.86-.608 1.01-1.448 1.92-2.52 2.734-1.041.785-2.359 1.177-3.951 1.177-1.36 0-2.736-.392-4.125-1.177-1.361-.813-2.041-2.215-2.041-4.206 0-1.57.463-2.762 1.39-3.575.955-.813 2.142-1.36 3.56-1.64a20.588 20.588 0 014.386-.462c1.158 0 2.23.041 3.214.126v-1.052c0-1.598-.26-2.733-.782-3.406-.492-.673-1.36-1.01-2.606-1.01-.492 0-1.027.056-1.606.169-.55.112-1.1.322-1.65.63l-.956 3.028-3.517-.378.868-4.879zm10.249 9.21c-.464-.055-.97-.111-1.52-.167a14.595 14.595 0 00-1.564-.085c-1.187 0-2.243.197-3.17.59-.897.392-1.346 1.19-1.346 2.396 0 1.739.941 2.608 2.823 2.608 1.129 0 2.186-.407 3.17-1.22 1.013-.813 1.549-2.004 1.607-3.575v-.546z"/>
  <path fill="#F9F5D7" d="M12 48v60l42.336-31.752L12 48z"/>
  <path fill="#F9F5D7" d="M12 108h96L65.664 76.248 60 72l-5.664 4.248L12 108z"/>
  <path fill="#F9F5D7" d="M108 108V48L65.664 76.248 108 108z"/>
  <path stroke="#EBDBB2" stroke-linejoin="round" stroke-width="6" d="M12 108V48l42.336 28.248M12 108h96m-96 0l42.336-31.752M108 108V48L65.664 76.248M108 108L65.664 76.248m-11.328 0L60 72l5.664 4.248"/>
  <path fill="#928374" d="M27 54.393l-9.8-6.553L27 50v4.393zM93 54.405l9.8-6.559L93 50v4.405z"/>
</svg>
