<svg xmlns="http://www.w3.org/2000/svg" width="180" height="291" fill="none" viewBox="0 0 180 291">
  <mask id="a" fill="#fff">
    <path fill-rule="evenodd" d="M9 84L0 72l9-12h162l9 12-9 12H9zm121-21a9 9 0 00-9 9 9 9 0 009 9h31a9 9 0 009-9 9 9 0 00-9-9h-31z" clip-rule="evenodd"/>
  </mask>
  <path fill="#076678" fill-rule="evenodd" d="M9 84L0 72l9-12h162l9 12-9 12H9zm121-21a9 9 0 00-9 9 9 9 0 009 9h31a9 9 0 009-9 9 9 0 00-9-9h-31z" clip-rule="evenodd"/>
  <path fill="#000" fill-opacity=".25" d="M0 72l-.8-.6-.45.6.45.6.8-.6zm9 12l-.8.6.3.4H9v-1zm0-24v-1h-.5l-.3.4.8.6zm162 0l.8-.6-.3-.4h-.5v1zm9 12l.8.6.45-.6-.45-.6-.8.6zm-9 12v1h.5l.3-.4-.8-.6zM-.8 72.6l9 12 1.6-1.2-9-12-1.6 1.2zm9-13.2l-9 12 1.6 1.2 9-12-1.6-1.2zM171 59H9v2h162v-2zm9.8 12.4l-9-12-1.6 1.2 9 12 1.6-1.2zm-9 13.2l9-12-1.6-1.2-9 12 1.6 1.2zM9 85h162v-2H9v2zm113-13a8 8 0 018-8v-2c-5.523 0-10 4.477-10 10h2zm8 8a8 8 0 01-8-8h-2c0 5.523 4.477 10 10 10v-2zm31 0h-31v2h31v-2zm8-8a8 8 0 01-8 8v2c5.523 0 10-4.477 10-10h-2zm-8-8a8 8 0 018 8h2c0-5.523-4.477-10-10-10v2zm-31 0h31v-2h-31v2z" mask="url(#a)"/>
  <g filter="url(#filter0_d)">
    <path fill="#FBF1C7" d="M12.612 69.526c.904 0 1.59.3 2.058.9.472.6.708 1.402.708 2.406 0 .652-.108 1.228-.324 1.728-.212.5-.524.89-.936 1.17-.412.28-.918.42-1.518.42-.904 0-1.594-.3-2.07-.9-.472-.6-.708-1.402-.708-2.406 0-.656.106-1.232.318-1.728.216-.5.53-.89.942-1.17.416-.28.926-.42 1.53-.42zm0 .918c-.52 0-.912.196-1.176.588-.264.388-.396.992-.396 1.812 0 .812.13 1.414.39 1.806.26.388.65.582 1.17.582.52 0 .91-.194 1.17-.582.26-.392.39-.998.39-1.818 0-.816-.13-1.418-.39-1.806-.26-.388-.646-.582-1.158-.582zm5.881-.768v4.452c0 .4.08.688.24.864.164.172.416.258.756.258.32 0 .626-.094.918-.282.296-.188.526-.412.69-.672v-4.62h1.152V76h-.99l-.084-.834a2.39 2.39 0 01-.912.732c-.36.168-.726.252-1.098.252-.612 0-1.07-.166-1.374-.498-.3-.332-.45-.792-.45-1.38v-4.596h1.152zm11.18 6a2.84 2.84 0 01-.81.342 3.476 3.476 0 01-.948.132c-.704 0-1.244-.184-1.62-.552-.372-.368-.558-.846-.558-1.434V70.54h-1.434v-.864h1.434v-1.428l1.152-.138v1.566h2.16l-.132.864h-2.028v3.612c0 .348.088.61.264.786.18.176.478.264.894.264.232 0 .446-.026.642-.078.2-.056.384-.13.552-.222l.432.774zm4.657-8.544v7.236c0 .304.094.52.282.648.188.124.43.186.726.186.188 0 .366-.018.534-.054.172-.04.34-.094.504-.162l.3.822a3.114 3.114 0 01-.66.24 3.59 3.59 0 01-.894.102c-.596 0-1.07-.166-1.422-.498-.348-.332-.522-.788-.522-1.368v-6.276h-1.926v-.876h3.078zm7.051-.48c.24 0 .432.074.576.222a.735.735 0 01.222.54.77.77 0 01-.222.558c-.144.148-.336.222-.576.222a.78.78 0 01-.576-.222.781.781 0 01-.216-.558c0-.212.072-.392.216-.54a.78.78 0 01.576-.222zm.858 3.024v5.448h1.758V76h-4.836v-.876h1.926v-4.572h-1.866v-.876h3.018zM46.123 76v-6.324h.99l.084.852a2.6 2.6 0 01.948-.744 2.68 2.68 0 011.122-.258c.608 0 1.056.166 1.344.498.288.328.432.786.432 1.374V76H49.89v-3.894a5.3 5.3 0 00-.072-.972c-.044-.248-.138-.428-.282-.54-.144-.116-.362-.174-.654-.174-.344 0-.656.106-.936.318-.28.212-.504.44-.672.684V76h-1.152zm8.125-2.772c.032.696.22 1.202.564 1.518.348.316.76.474 1.236.474.316 0 .606-.048.87-.144a3.7 3.7 0 00.804-.42l.522.726a3.58 3.58 0 01-2.232.768c-.632 0-1.17-.138-1.614-.414a2.702 2.702 0 01-1.008-1.164c-.228-.496-.342-1.072-.342-1.728 0-.636.114-1.204.342-1.704.232-.5.558-.894.978-1.182.42-.288.92-.432 1.5-.432.816 0 1.458.28 1.926.84.472.556.708 1.318.708 2.286 0 .108-.002.212-.006.312s-.01.188-.018.264h-4.23zm1.632-2.802c-.452 0-.826.16-1.122.48-.296.32-.466.814-.51 1.482h3.144c-.012-.64-.152-1.126-.42-1.458-.264-.336-.628-.504-1.092-.504zm8.39-3.432l1.151.138V76h-1.014l-.096-.81c-.448.64-1.044.96-1.788.96-.544 0-.994-.138-1.35-.414-.352-.28-.614-.668-.786-1.164-.172-.496-.258-1.072-.258-1.728 0-.64.098-1.208.294-1.704.2-.5.484-.894.852-1.182.372-.288.82-.432 1.344-.432.68 0 1.23.24 1.65.72v-3.252zm-1.35 3.438c-.497 0-.88.198-1.153.594-.268.396-.402 1.002-.402 1.818 0 .812.122 1.414.366 1.806a1.19 1.19 0 001.068.588c.332 0 .618-.094.858-.282.244-.192.448-.416.612-.672v-3.09a1.79 1.79 0 00-.594-.558 1.448 1.448 0 00-.756-.204z"/>
    <path fill="#B8BB26" d="M76.914 69.424a.853.853 0 01-.282.648.94.94 0 01-.666.258.935.935 0 01-.672-.258.881.881 0 01-.264-.648c0-.112.014-.232.042-.36.028-.132.092-.302.192-.51l.954-2.022h.84l-.492 2.19c.232.164.348.398.348.702zm2.622 0a.853.853 0 01-.282.648.94.94 0 01-.666.258.94.94 0 01-.666-.258.871.871 0 01-.27-.648c0-.112.014-.232.042-.36a2.74 2.74 0 01.198-.51l.966-2.022h.828l-.492 2.19c.228.164.342.398.342.702zm3.715 1.044c.224-.296.486-.526.786-.69.304-.168.634-.252.99-.252.56 0 1.014.138 1.362.414.348.272.602.656.762 1.152.16.492.24 1.072.24 1.74 0 .64-.096 1.21-.288 1.71-.192.5-.474.894-.846 1.182-.372.284-.83.426-1.374.426-.724 0-1.29-.264-1.698-.792l-.072.642H82.1v-8.868l1.152-.138v3.474zm1.35 4.776c.496 0 .878-.196 1.146-.588.272-.396.408-1.004.408-1.824 0-.82-.122-1.424-.366-1.812-.24-.392-.588-.588-1.044-.588-.328 0-.618.1-.87.3-.252.196-.46.42-.624.672v3.06c.16.24.356.43.588.57.232.14.486.21.762.21zm7.291-8.112v7.236c0 .304.094.52.282.648.188.124.43.186.726.186.188 0 .366-.018.534-.054.172-.04.34-.094.504-.162l.3.822a3.114 3.114 0 01-.66.24 3.59 3.59 0 01-.894.102c-.596 0-1.07-.166-1.422-.498-.348-.332-.522-.788-.522-1.368v-6.276h-1.926v-.876h3.078zm5.75 2.544v4.452c0 .4.08.688.24.864.164.172.416.258.756.258.32 0 .626-.094.918-.282.296-.188.526-.412.69-.672v-4.62h1.152V76h-.99l-.084-.834a2.39 2.39 0 01-.912.732c-.36.168-.726.252-1.098.252-.612 0-1.07-.166-1.374-.498-.3-.332-.45-.792-.45-1.38v-4.596h1.152zm6.973 3.552c.032.696.22 1.202.564 1.518.348.316.76.474 1.236.474.316 0 .606-.048.87-.144a3.7 3.7 0 00.804-.42l.522.726a3.58 3.58 0 01-2.232.768c-.632 0-1.17-.138-1.614-.414a2.702 2.702 0 01-1.008-1.164c-.228-.496-.342-1.072-.342-1.728 0-.636.114-1.204.342-1.704.232-.5.558-.894.978-1.182.42-.288.92-.432 1.5-.432.816 0 1.458.28 1.926.84.472.556.708 1.318.708 2.286 0 .108-.002.212-.006.312s-.01.188-.018.264h-4.23zm1.632-2.802c-.452 0-.826.16-1.122.48-.296.32-.466.814-.51 1.482h3.144c-.012-.64-.152-1.126-.42-1.458-.264-.336-.628-.504-1.092-.504zm4.897-2.988c0-.256.094-.472.282-.648a.942.942 0 01.666-.264c.26 0 .482.088.666.264a.853.853 0 01.282.648c0 .124-.02.246-.06.366-.036.12-.104.286-.204.498l-.954 2.022h-.828l.48-2.19c-.22-.164-.33-.396-.33-.696zm2.622 0c0-.256.094-.472.282-.648a.942.942 0 01.666-.264c.264 0 .488.088.672.264a.862.862 0 01.276.648c0 .124-.016.246-.048.366s-.098.286-.198.498l-.966 2.022h-.828l.492-2.19a.802.802 0 01-.348-.696z"/>
  </g>
  <g>
    <mask id="b" fill="#fff">
      <path fill-rule="evenodd" d="M9 116l-9-12 9-12h148l9 12-9 12H9zm107-21a9 9 0 00-9 9 9 9 0 009 9h31a9 9 0 009-9 9 9 0 00-9-9h-31z" clip-rule="evenodd"/>
    </mask>
    <path fill="#076678" fill-rule="evenodd" d="M9 116l-9-12 9-12h148l9 12-9 12H9zm107-21a9 9 0 00-9 9 9 9 0 009 9h31a9 9 0 009-9 9 9 0 00-9-9h-31z" clip-rule="evenodd"/>
    <path fill="#000" fill-opacity=".25" d="M0 104l-.8-.6-.45.6.45.6.8-.6zm9 12l-.8.6.3.4H9v-1zm0-24v-1h-.5l-.3.4.8.6zm148 0l.8-.6-.3-.4h-.5v1zm9 12l.8.6.45-.6-.45-.6-.8.6zm-9 12v1h.5l.3-.4-.8-.6zM-.8 104.6l9 12 1.6-1.2-9-12-1.6 1.2zm9-13.2l-9 12 1.6 1.2 9-12-1.6-1.2zM157 91H9v2h148v-2zm9.8 12.4l-9-12-1.6 1.2 9 12 1.6-1.2zm-9 13.2l9-12-1.6-1.2-9 12 1.6 1.2zM9 117h148v-2H9v2zm99-13a8 8 0 018-8v-2c-5.523 0-10 4.477-10 10h2zm8 8a8 8 0 01-8-8h-2c0 5.523 4.477 10 10 10v-2zm31 0h-31v2h31v-2zm8-8a8 8 0 01-8 8v2c5.523 0 10-4.477 10-10h-2zm-8-8a8 8 0 018 8h2c0-5.523-4.477-10-10-10v2zm-31 0h31v-2h-31v2z" mask="url(#b)"/>
    <g filter="url(#filter1_d)">
      <path fill="#FBF1C7" d="M13.932 98.994c.36 0 .684.032.972.096.288.06.56.146.816.258l-.36.828a2.7 2.7 0 00-.654-.198 3.697 3.697 0 00-.702-.066c-.856 0-1.284.342-1.284 1.026v1.212h2.136l-.126.876h-2.01V108h-1.146v-4.974h-1.482v-.876h1.482v-1.206c0-.392.1-.734.3-1.026.204-.292.482-.518.834-.678a2.895 2.895 0 011.224-.246zm5.863-.342c.24 0 .432.074.576.222a.735.735 0 01.222.54.77.77 0 01-.222.558c-.144.148-.336.222-.576.222a.78.78 0 01-.576-.222.781.781 0 01-.216-.558c0-.212.072-.392.216-.54a.78.78 0 01.576-.222zm.858 3.024v5.448h1.758V108h-4.836v-.876h1.926v-4.572h-1.866v-.876h3.018zm6.482-2.544v7.236c0 .304.094.52.282.648.188.124.43.186.726.186.188 0 .366-.018.534-.054.172-.04.34-.094.504-.162l.3.822a3.114 3.114 0 01-.66.24 3.59 3.59 0 01-.894.102c-.596 0-1.07-.166-1.422-.498-.348-.332-.522-.788-.522-1.368v-6.276h-1.926v-.876h3.078zm7.195 0v7.236c0 .304.094.52.282.648.188.124.43.186.726.186.188 0 .366-.018.534-.054.172-.04.34-.094.504-.162l.3.822a3.114 3.114 0 01-.66.24 3.59 3.59 0 01-.894.102c-.596 0-1.07-.166-1.422-.498-.348-.332-.522-.788-.522-1.368v-6.276h-1.926v-.876h3.078zm5.527 6.096c.032.696.22 1.202.564 1.518.348.316.76.474 1.236.474.316 0 .606-.048.87-.144a3.7 3.7 0 00.804-.42l.522.726a3.58 3.58 0 01-2.232.768c-.632 0-1.17-.138-1.614-.414A2.702 2.702 0 0139 106.572c-.228-.496-.342-1.072-.342-1.728 0-.636.114-1.204.342-1.704.232-.5.558-.894.978-1.182.42-.288.92-.432 1.5-.432.816 0 1.458.28 1.926.84.472.556.708 1.318.708 2.286 0 .108-.002.212-.006.312s-.01.188-.018.264h-4.23zm1.632-2.802c-.452 0-.826.16-1.122.48-.296.32-.466.814-.51 1.482h3.144c-.012-.64-.152-1.126-.42-1.458-.264-.336-.628-.504-1.092-.504zm8.39-3.432l1.152.138V108h-1.014l-.096-.81c-.448.64-1.044.96-1.788.96-.544 0-.994-.138-1.35-.414-.352-.28-.614-.668-.786-1.164-.172-.496-.258-1.072-.258-1.728 0-.64.098-1.208.294-1.704.2-.5.484-.894.852-1.182.372-.288.82-.432 1.344-.432.68 0 1.23.24 1.65.72v-3.252zm-1.35 3.438c-.496 0-.88.198-1.152.594-.268.396-.402 1.002-.402 1.818 0 .812.122 1.414.366 1.806a1.19 1.19 0 001.068.588c.332 0 .618-.094.858-.282.244-.192.448-.416.612-.672v-3.09a1.79 1.79 0 00-.594-.558 1.448 1.448 0 00-.756-.204z"/>
      <path fill="#B8BB26" d="M62.523 101.424a.853.853 0 01-.282.648.94.94 0 01-.666.258.935.935 0 01-.672-.258.881.881 0 01-.264-.648c0-.112.014-.232.042-.36.028-.132.092-.302.192-.51l.954-2.022h.84l-.492 2.19c.232.164.348.398.348.702zm2.622 0a.853.853 0 01-.282.648.94.94 0 01-.666.258.94.94 0 01-.666-.258.871.871 0 01-.27-.648c0-.112.014-.232.042-.36a2.74 2.74 0 01.198-.51l.966-2.022h.828l-.492 2.19c.228.164.342.398.342.702zm3.716 1.044c.224-.296.486-.526.785-.69.305-.168.635-.252.99-.252.56 0 1.014.138 1.363.414.348.272.602.656.761 1.152.16.492.24 1.072.24 1.74 0 .64-.096 1.21-.287 1.71-.192.5-.474.894-.846 1.182-.373.284-.83.426-1.374.426-.724 0-1.29-.264-1.698-.792l-.073.642H67.71v-8.868l1.151-.138v3.474zm1.35 4.776c.496 0 .877-.196 1.145-.588.273-.396.409-1.004.409-1.824 0-.82-.123-1.424-.367-1.812-.24-.392-.587-.588-1.043-.588-.329 0-.618.1-.87.3-.252.196-.46.42-.624.672v3.06c.16.24.355.43.587.57.233.14.487.21.763.21zm7.29-8.112v7.236c0 .304.095.52.283.648.188.124.43.186.726.186.188 0 .366-.018.534-.054.172-.04.34-.094.504-.162l.3.822a3.114 3.114 0 01-.66.24 3.59 3.59 0 01-.894.102c-.596 0-1.07-.166-1.422-.498-.348-.332-.522-.788-.522-1.368v-6.276h-1.926v-.876h3.078zm5.75 2.544v4.452c0 .4.08.688.24.864.164.172.416.258.756.258.32 0 .626-.094.918-.282.296-.188.526-.412.69-.672v-4.62h1.152V108h-.99l-.084-.834a2.39 2.39 0 01-.912.732c-.36.168-.726.252-1.098.252-.612 0-1.07-.166-1.374-.498-.3-.332-.45-.792-.45-1.38v-4.596h1.152zm6.973 3.552c.032.696.22 1.202.564 1.518.348.316.76.474 1.236.474.316 0 .606-.048.87-.144a3.7 3.7 0 00.804-.42l.522.726a3.58 3.58 0 01-2.232.768c-.632 0-1.17-.138-1.614-.414a2.702 2.702 0 01-1.008-1.164c-.228-.496-.342-1.072-.342-1.728 0-.636.114-1.204.342-1.704.232-.5.558-.894.978-1.182.42-.288.92-.432 1.5-.432.816 0 1.458.28 1.926.84.472.556.708 1.318.708 2.286 0 .108-.002.212-.006.312s-.01.188-.018.264h-4.23zm1.632-2.802c-.452 0-.826.16-1.122.48-.296.32-.466.814-.51 1.482h3.144c-.012-.64-.152-1.126-.42-1.458-.264-.336-.628-.504-1.092-.504zm4.898-2.988c0-.256.094-.472.282-.648a.942.942 0 01.666-.264c.26 0 .482.088.666.264a.853.853 0 01.282.648c0 .124-.02.246-.06.366-.036.12-.104.286-.204.498l-.954 2.022h-.828l.48-2.19c-.22-.164-.33-.396-.33-.696zm2.622 0c0-.256.094-.472.282-.648a.943.943 0 01.666-.264c.264 0 .488.088.672.264a.862.862 0 01.276.648c0 .124-.016.246-.048.366s-.098.286-.198.498l-.966 2.022h-.828l.492-2.19a.802.802 0 01-.348-.696z"/>
    </g>
  </g>
  <g>
    <mask id="c" fill="#fff">
      <path fill-rule="evenodd" d="M0 136l9 12h156l9-12-9-12H9l-9 12zm107 0l9 9h44l9-9-9-9h-44l-9 9z" clip-rule="evenodd"/>
    </mask>
    <path fill="#076678" fill-rule="evenodd" d="M0 136l9 12h156l9-12-9-12H9l-9 12zm107 0l9 9h44l9-9-9-9h-44l-9 9z" clip-rule="evenodd"/>
    <path fill="#000" fill-opacity=".25" d="M9 148l-.8.6.3.4H9v-1zm-9-12l-.8-.6-.45.6.45.6.8-.6zm165 12v1h.5l.3-.4-.8-.6zm9-12l.8.6.45-.6-.45-.6-.8.6zm-9-12l.8-.6-.3-.4h-.5v1zM9 124v-1h-.5l-.3.4.8.6zm107 21l-.707.707.293.293H116v-1zm-9-9l-.707-.707-.707.707.707.707L107 136zm53 9v1h.414l.293-.293L160 145zm9-9l.707.707.707-.707-.707-.707L169 136zm-9-9l.707-.707-.293-.293H160v1zm-44 0v-1h-.414l-.293.293.707.707zM9.8 147.4l-9-12-1.6 1.2 9 12 1.6-1.2zM165 147H9v2h156v-2zm8.2-11.6l-9 12 1.6 1.2 9-12-1.6-1.2zm-9-10.8l9 12 1.6-1.2-9-12-1.6 1.2zM9 125h156v-2H9v2zM.8 136.6l9-12-1.6-1.2-9 12 1.6 1.2zm115.907 7.693l-9-9-1.414 1.414 9 9 1.414-1.414zM160 144h-44v2h44v-2zm8.293-8.707l-9 9 1.414 1.414 9-9-1.414-1.414zm-9-7.586l9 9 1.414-1.414-9-9-1.414 1.414zM116 128h44v-2h-44v2zm-8.293 8.707l9-9-1.414-1.414-9 9 1.414 1.414z" mask="url(#c)"/>
    <g filter="url(#filter2_d)">
      <path fill="#FBF1C7" d="M14.4 133.526c.216 0 .418.048.606.144.192.096.346.272.462.528.116.252.174.618.174 1.098V140h-1.05v-4.536c0-.368-.024-.632-.072-.792-.044-.164-.172-.246-.384-.246-.176 0-.352.054-.528.162-.172.108-.34.288-.504.54V140h-1.008v-4.536c0-.368-.024-.632-.072-.792-.044-.164-.172-.246-.384-.246a.982.982 0 00-.528.162c-.172.108-.34.288-.504.54V140h-1.05v-6.324h.888l.072.708a2.94 2.94 0 01.582-.612c.216-.164.478-.246.786-.246.24 0 .462.058.666.174.208.116.36.332.456.648.172-.244.368-.442.588-.594a1.38 1.38 0 01.804-.228zm5.407 0c.904 0 1.59.3 2.058.9.472.6.708 1.402.708 2.406 0 .652-.108 1.228-.324 1.728-.212.5-.524.89-.936 1.17-.412.28-.918.42-1.518.42-.904 0-1.594-.3-2.07-.9-.472-.6-.708-1.402-.708-2.406 0-.656.106-1.232.318-1.728.216-.5.53-.89.942-1.17.416-.28.926-.42 1.53-.42zm0 .918c-.52 0-.912.196-1.176.588-.264.388-.396.992-.396 1.812 0 .812.13 1.414.39 1.806.26.388.65.582 1.17.582.52 0 .91-.194 1.17-.582.26-.392.39-.998.39-1.818 0-.816-.13-1.418-.39-1.806-.26-.388-.646-.582-1.158-.582zm10.118-.768L27.657 140h-1.344l-2.256-6.324h1.224l1.734 5.322 1.728-5.322h1.182zm2.737 3.552c.032.696.22 1.202.564 1.518.348.316.76.474 1.236.474.316 0 .606-.048.87-.144a3.7 3.7 0 00.804-.42l.522.726a3.58 3.58 0 01-2.232.768c-.632 0-1.17-.138-1.614-.414a2.702 2.702 0 01-1.008-1.164c-.228-.496-.342-1.072-.342-1.728 0-.636.114-1.204.342-1.704.232-.5.558-.894.978-1.182.42-.288.92-.432 1.5-.432.816 0 1.458.28 1.926.84.472.556.708 1.318.708 2.286 0 .108-.002.212-.006.312s-.01.188-.018.264h-4.23zm1.632-2.802c-.452 0-.826.16-1.122.48-.296.32-.466.814-.51 1.482h3.144c-.012-.64-.152-1.126-.42-1.458-.264-.336-.628-.504-1.092-.504zm8.39-3.432l1.151.138V140h-1.014l-.096-.81c-.448.64-1.044.96-1.788.96-.544 0-.994-.138-1.35-.414-.352-.28-.614-.668-.786-1.164-.172-.496-.258-1.072-.258-1.728 0-.64.098-1.208.294-1.704.2-.5.484-.894.852-1.182.372-.288.82-.432 1.344-.432.68 0 1.23.24 1.65.72v-3.252zm-1.35 3.438c-.497 0-.88.198-1.153.594-.268.396-.402 1.002-.402 1.818 0 .812.122 1.414.366 1.806a1.19 1.19 0 001.068.588c.332 0 .618-.094.858-.282.244-.192.448-.416.612-.672v-3.09a1.79 1.79 0 00-.594-.558 1.448 1.448 0 00-.756-.204z"/>
      <path fill="#8EC07C" d="M58.448 139.076V140h-4.872v-.924h2.028v-6.132l-1.866 1.14-.498-.816 2.496-1.536h1.014v7.344h1.698zm4.52-7.494c.903 0 1.587.372 2.051 1.116.468.74.702 1.794.702 3.162 0 1.372-.234 2.43-.702 3.174-.464.744-1.148 1.116-2.052 1.116-.904 0-1.59-.372-2.058-1.116-.464-.744-.696-1.802-.696-3.174 0-1.368.232-2.422.696-3.162.468-.744 1.154-1.116 2.058-1.116zm0 .906c-.493 0-.879.262-1.159.786-.276.524-.414 1.386-.414 2.586 0 .888.062 1.584.186 2.088l2.448-4.95c-.24-.34-.594-.51-1.062-.51zm1.571 3.372c0-.86-.058-1.536-.174-2.028l-2.43 4.938c.24.316.584.474 1.032.474.5 0 .886-.262 1.158-.786.276-.528.414-1.394.414-2.598zm5.623-4.278c.904 0 1.588.372 2.052 1.116.469.74.703 1.794.703 3.162 0 1.372-.234 2.43-.703 3.174-.463.744-1.147 1.116-2.052 1.116-.904 0-1.59-.372-2.058-1.116-.463-.744-.695-1.802-.695-3.174 0-1.368.231-2.422.695-3.162.469-.744 1.154-1.116 2.058-1.116zm0 .906c-.492 0-.878.262-1.158.786-.276.524-.413 1.386-.413 2.586 0 .888.062 1.584.186 2.088l2.448-4.95c-.24-.34-.594-.51-1.063-.51zm1.572 3.372c0-.86-.057-1.536-.173-2.028l-2.43 4.938c.24.316.584.474 1.031.474.5 0 .886-.262 1.158-.786.277-.528.415-1.394.415-2.598zm12.465-4.278c.536 0 .994.104 1.374.312.384.204.676.482.876.834.2.348.3.74.3 1.176 0 .372-.064.736-.192 1.092-.128.356-.336.73-.624 1.122-.284.388-.658.82-1.122 1.296a40.413 40.413 0 01-1.704 1.632h3.834l-.138.954h-5.01v-.906a65.75 65.75 0 001.878-1.86c.488-.512.868-.952 1.14-1.32.276-.372.468-.71.576-1.014.108-.304.162-.618.162-.942 0-.444-.126-.794-.378-1.05-.248-.256-.594-.384-1.038-.384-.392 0-.716.07-.972.21-.256.14-.512.362-.768.666l-.768-.594c.324-.404.69-.708 1.098-.912.408-.208.9-.312 1.476-.312zm7.55 0c.903 0 1.587.372 2.051 1.116.468.74.702 1.794.702 3.162 0 1.372-.234 2.43-.702 3.174-.464.744-1.148 1.116-2.052 1.116-.904 0-1.59-.372-2.058-1.116-.464-.744-.696-1.802-.696-3.174 0-1.368.232-2.422.696-3.162.468-.744 1.154-1.116 2.058-1.116zm0 .906c-.493 0-.879.262-1.159.786-.276.524-.414 1.386-.414 2.586 0 .888.062 1.584.186 2.088l2.448-4.95c-.24-.34-.594-.51-1.062-.51zm1.571 3.372c0-.86-.058-1.536-.174-2.028l-2.43 4.938c.24.316.584.474 1.032.474.5 0 .886-.262 1.158-.786.276-.528.414-1.394.414-2.598zm5.624-4.278c.904 0 1.588.372 2.052 1.116.468.74.702 1.794.702 3.162 0 1.372-.234 2.43-.702 3.174-.464.744-1.148 1.116-2.052 1.116-.904 0-1.59-.372-2.058-1.116-.464-.744-.696-1.802-.696-3.174 0-1.368.232-2.422.696-3.162.468-.744 1.154-1.116 2.058-1.116zm0 .906c-.492 0-.878.262-1.158.786-.276.524-.414 1.386-.414 2.586 0 .888.062 1.584.186 2.088l2.448-4.95c-.24-.34-.594-.51-1.062-.51zm1.572 3.372c0-.86-.058-1.536-.174-2.028l-2.43 4.938c.24.316.584.474 1.032.474.5 0 .886-.262 1.158-.786.276-.528.414-1.394.414-2.598z"/>
    </g>
  </g>
  <g>
    <mask id="d" fill="#fff">
      <path fill-rule="evenodd" d="M9 291l-9-23.5L9 244h91l9 23.5-9 23.5H9zm3.977-20c0-2.209 1.77-4 3.955-4 2.184 0 3.954 1.791 3.954 4H98v15H11v-15h1.977z" clip-rule="evenodd"/>
    </mask>
    <path fill="#076678" fill-rule="evenodd" d="M9 291l-9-23.5L9 244h91l9 23.5-9 23.5H9zm3.977-20c0-2.209 1.77-4 3.955-4 2.184 0 3.954 1.791 3.954 4H98v15H11v-15h1.977z" clip-rule="evenodd"/>
    <path fill="#000" fill-opacity=".25" d="M0 267.5l-.934-.358-.137.358.137.358L0 267.5zM9 291l-.934.358.246.642H9v-1zm0-47v-1h-.688l-.246.642L9 244zm91 0l.934-.358-.246-.642H100v1zm9 23.5l.934.358.137-.358-.137-.358-.934.358zm-9 23.5v1h.688l.246-.642L100 291zm-87.023-20v1h1v-1h-1zm7.91 0h-1v1h1v-1zM98 271h1v-1h-1v1zm0 15v1h1v-1h-1zm-87 0h-1v1h1v-1zm0-15v-1h-1v1h1zm-11.934-3.142l9 23.5 1.868-.716-9-23.5-1.868.716zm9-24.216l-9 23.5 1.868.716 9-23.5-1.868-.716zM100 243H9v2h91v-2zm9.934 24.142l-9-23.5-1.868.716 9 23.5 1.868-.716zm-9 24.216l9-23.5-1.868-.716-9 23.5 1.868.716zM9 292h91v-2H9v2zm7.932-26c-2.747 0-4.955 2.249-4.955 5h2c0-1.668 1.334-3 2.955-3v-2zm4.954 5c0-2.751-2.207-5-4.954-5v2c1.62 0 2.954 1.332 2.954 3h2zM98 270H20.886v2H98v-2zm1 16v-15h-2v15h2zm-88 1h87v-2H11v2zm-1-16v15h2v-15h-2zm2.977-1H11v2h1.977v-2z" mask="url(#d)"/>
    <g filter="url(#filter3_d)">
      <path fill="#FBF1C7" d="M14.36 258.232c.46 0 .822-.084 1.086-.252.268-.168.402-.396.402-.684a.942.942 0 00-.108-.468c-.068-.132-.212-.252-.432-.36-.216-.112-.544-.224-.984-.336a6.755 6.755 0 01-1.128-.378 1.881 1.881 0 01-.738-.564c-.172-.232-.258-.532-.258-.9 0-.536.224-.964.672-1.284.448-.32 1.042-.48 1.782-.48.52 0 .972.07 1.356.21.384.136.712.304.984.504l-.492.75a3.76 3.76 0 00-.804-.396 2.903 2.903 0 00-1.02-.162c-.468 0-.802.072-1.002.216a.654.654 0 00-.294.558c0 .176.048.322.144.438.1.112.27.216.51.312.24.092.572.196.996.312.412.112.772.244 1.08.396.308.152.546.352.714.6.172.244.258.566.258.966 0 .452-.13.82-.39 1.104a2.3 2.3 0 01-1.014.618 4.301 4.301 0 01-1.32.198c-.576 0-1.072-.084-1.488-.252a3.68 3.68 0 01-1.038-.618l.636-.732c.244.204.526.37.846.498.324.124.672.186 1.044.186zm6.133-5.556v4.452c0 .4.08.688.24.864.164.172.416.258.756.258.32 0 .626-.094.918-.282.296-.188.526-.412.69-.672v-4.62h1.152V259h-.99l-.084-.834a2.39 2.39 0 01-.912.732c-.36.168-.726.252-1.098.252-.612 0-1.07-.166-1.374-.498-.3-.332-.45-.792-.45-1.38v-4.596h1.152zm8.984-.15c.56 0 1.008.138 1.344.414.336.272.578.656.726 1.152.148.492.222 1.072.222 1.74 0 .64-.09 1.21-.27 1.71-.18.5-.45.894-.81 1.182-.36.284-.812.426-1.356.426-.68 0-1.228-.24-1.644-.72v2.994l-1.152.138v-8.886h.99l.084.852c.488-.668 1.11-1.002 1.866-1.002zm-.294.906c-.328 0-.618.1-.87.3-.252.196-.46.42-.624.672v3.06c.16.236.356.422.588.558.232.132.49.198.774.198.496 0 .87-.192 1.122-.576.252-.388.378-.992.378-1.812 0-.82-.112-1.424-.336-1.812-.224-.392-.568-.588-1.032-.588zm5.479 2.796c.032.696.22 1.202.564 1.518.348.316.76.474 1.236.474.316 0 .606-.048.87-.144a3.7 3.7 0 00.804-.42l.522.726a3.58 3.58 0 01-2.232.768c-.632 0-1.17-.138-1.614-.414a2.702 2.702 0 01-1.008-1.164c-.228-.496-.342-1.072-.342-1.728 0-.636.114-1.204.342-1.704.232-.5.558-.894.978-1.182.42-.288.92-.432 1.5-.432.816 0 1.458.28 1.926.84.472.556.708 1.318.708 2.286 0 .108-.002.212-.006.312s-.01.188-.018.264h-4.23zm1.632-2.802c-.452 0-.826.16-1.122.48-.296.32-.466.814-.51 1.482h3.144c-.012-.64-.152-1.126-.42-1.458-.264-.336-.628-.504-1.092-.504zM40.987 259v-.852h.96v-4.62h-.96v-.852h1.842l.21 1.482c.24-.524.534-.926.882-1.206.352-.284.808-.426 1.368-.426a2.5 2.5 0 01.486.042c.144.028.29.064.438.108l-.18 2.22h-.888v-1.32h-.006c-.948 0-1.628.678-2.04 2.034v2.538h1.284V259h-3.396zm9.59-9.348c.24 0 .432.074.576.222a.735.735 0 01.222.54.77.77 0 01-.222.558c-.144.148-.336.222-.576.222a.78.78 0 01-.576-.222.781.781 0 01-.216-.558c0-.212.072-.392.216-.54a.78.78 0 01.576-.222zm.858 3.024v5.448h1.758V259h-4.836v-.876h1.926v-4.572h-1.866v-.876h3.018zm8.137-.15c.216 0 .418.048.606.144.192.096.346.272.462.528.116.252.174.618.174 1.098V259h-1.05v-4.536c0-.368-.024-.632-.072-.792-.044-.164-.172-.246-.384-.246-.176 0-.352.054-.528.162-.172.108-.34.288-.504.54V259h-1.008v-4.536c0-.368-.024-.632-.072-.792-.044-.164-.172-.246-.384-.246a.982.982 0 00-.528.162c-.172.108-.34.288-.504.54V259h-1.05v-6.324h.888l.072.708a2.94 2.94 0 01.582-.612c.216-.164.478-.246.786-.246.24 0 .462.058.666.174.208.116.36.332.456.648.172-.244.368-.442.588-.594a1.38 1.38 0 01.804-.228zm5.881 0c.56 0 1.008.138 1.344.414.336.272.578.656.726 1.152.148.492.222 1.072.222 1.74 0 .64-.09 1.21-.27 1.71-.18.5-.45.894-.81 1.182-.36.284-.812.426-1.356.426-.68 0-1.228-.24-1.644-.72v2.994l-1.152.138v-8.886h.99l.084.852c.488-.668 1.11-1.002 1.866-1.002zm-.294.906c-.328 0-.618.1-.87.3-.252.196-.46.42-.624.672v3.06c.16.236.356.422.588.558.232.132.49.198.774.198.496 0 .87-.192 1.122-.576.252-.388.378-.992.378-1.812 0-.82-.112-1.424-.336-1.812-.224-.392-.568-.588-1.032-.588zm7.015-.906c.904 0 1.59.3 2.058.9.472.6.709 1.402.709 2.406 0 .652-.109 1.228-.325 1.728-.212.5-.523.89-.936 1.17-.412.28-.918.42-1.518.42-.904 0-1.594-.3-2.07-.9-.471-.6-.707-1.402-.707-2.406 0-.656.105-1.232.317-1.728.216-.5.53-.89.942-1.17.416-.28.926-.42 1.53-.42zm0 .918c-.52 0-.912.196-1.175.588-.264.388-.396.992-.396 1.812 0 .812.13 1.414.39 1.806.26.388.65.582 1.17.582.52 0 .91-.194 1.17-.582.26-.392.39-.998.39-1.818 0-.816-.13-1.418-.39-1.806-.26-.388-.647-.582-1.159-.582zm6.944 4.788c.46 0 .822-.084 1.086-.252.268-.168.402-.396.402-.684a.942.942 0 00-.108-.468c-.068-.132-.212-.252-.432-.36-.216-.112-.544-.224-.984-.336a6.755 6.755 0 01-1.128-.378 1.881 1.881 0 01-.738-.564c-.172-.232-.258-.532-.258-.9 0-.536.224-.964.672-1.284.448-.32 1.042-.48 1.782-.48.52 0 .972.07 1.356.21.384.136.712.304.984.504l-.492.75a3.76 3.76 0 00-.804-.396 2.903 2.903 0 00-1.02-.162c-.468 0-.802.072-1.002.216a.654.654 0 00-.294.558c0 .176.048.322.144.438.1.112.27.216.51.312.24.092.572.196.996.312.412.112.772.244 1.08.396.308.152.546.352.714.6.172.244.258.566.258.966 0 .452-.13.82-.39 1.104a2.3 2.3 0 01-1.014.618 4.301 4.301 0 01-1.32.198c-.576 0-1.072-.084-1.488-.252a3.68 3.68 0 01-1.038-.618l.636-.732c.244.204.526.37.846.498.324.124.672.186 1.044.186zm5.911-2.004c.032.696.22 1.202.564 1.518.348.316.76.474 1.236.474.316 0 .606-.048.87-.144a3.7 3.7 0 00.804-.42l.522.726a3.58 3.58 0 01-2.232.768c-.632 0-1.17-.138-1.614-.414a2.702 2.702 0 01-1.008-1.164c-.228-.496-.342-1.072-.342-1.728 0-.636.114-1.204.342-1.704.232-.5.558-.894.978-1.182.42-.288.92-.432 1.5-.432.816 0 1.458.28 1.926.84.472.556.708 1.318.708 2.286 0 .108-.002.212-.006.312s-.01.188-.018.264h-4.23zm1.632-2.802c-.452 0-.826.16-1.122.48-.296.32-.466.814-.51 1.482h3.144c-.012-.64-.152-1.126-.42-1.458-.264-.336-.628-.504-1.092-.504zm8.39-3.432l1.151.138V259h-1.014l-.096-.81c-.448.64-1.044.96-1.788.96-.544 0-.994-.138-1.35-.414-.352-.28-.614-.668-.786-1.164-.172-.496-.258-1.072-.258-1.728 0-.64.098-1.208.294-1.704.2-.5.484-.894.852-1.182.372-.288.82-.432 1.344-.432.68 0 1.23.24 1.65.72v-3.252zm-1.35 3.438c-.497 0-.88.198-1.153.594-.268.396-.402 1.002-.402 1.818 0 .812.122 1.414.366 1.806a1.19 1.19 0 001.068.588c.332 0 .618-.094.858-.282.244-.192.448-.416.612-.672v-3.09a1.79 1.79 0 00-.594-.558 1.448 1.448 0 00-.756-.204z"/>
    </g>
  </g>
  <g>
    <rect width="124" height="18" y="26" fill="#8F3F71" rx="9"/>
    <rect width="123" height="17" x=".5" y="26.5" stroke="#000" stroke-opacity=".25" rx="8.5"/>
    <g filter="url(#filter4_d)">
      <path fill="#FBF1C7" d="M9.206 39v-.852h.96v-4.62h-.96v-.852h1.842l.21 1.482c.24-.524.534-.926.882-1.206.352-.284.808-.426 1.368-.426a2.5 2.5 0 01.486.042c.144.028.29.064.438.108l-.18 2.22h-.888v-1.32h-.006c-.948 0-1.628.678-2.04 2.034v2.538h1.284V39H9.206zm8.065-2.772c.032.696.22 1.202.564 1.518.348.316.76.474 1.236.474.316 0 .606-.048.87-.144a3.7 3.7 0 00.804-.42l.522.726a3.58 3.58 0 01-2.232.768c-.632 0-1.17-.138-1.614-.414a2.702 2.702 0 01-1.008-1.164c-.228-.496-.342-1.072-.342-1.728 0-.636.114-1.204.342-1.704.232-.5.558-.894.978-1.182.42-.288.92-.432 1.5-.432.816 0 1.458.28 1.926.84.472.556.708 1.318.708 2.286 0 .108-.002.212-.006.312s-.01.188-.018.264h-4.23zm1.632-2.802c-.452 0-.826.16-1.122.48-.296.32-.466.814-.51 1.482h3.144c-.012-.64-.152-1.126-.42-1.458-.264-.336-.628-.504-1.092-.504zm7.574 4.752c.308 0 .594-.05.858-.15.268-.104.518-.238.75-.402l.552.75c-.28.232-.616.42-1.008.564-.388.14-.778.21-1.17.21-.636 0-1.18-.136-1.632-.408a2.645 2.645 0 01-1.026-1.146c-.236-.492-.354-1.068-.354-1.728 0-.64.118-1.21.354-1.71.24-.504.586-.902 1.038-1.194.452-.292.998-.438 1.638-.438.824 0 1.54.248 2.148.744l-.546.75c-.532-.368-1.064-.552-1.596-.552-.528 0-.96.196-1.296.588-.336.392-.504.996-.504 1.812 0 .82.168 1.41.504 1.77.34.36.77.54 1.29.54zm9.39.498a2.84 2.84 0 01-.81.342 3.476 3.476 0 01-.947.132c-.704 0-1.244-.184-1.62-.552-.372-.368-.558-.846-.558-1.434V33.54h-1.434v-.864h1.434v-1.428l1.152-.138v1.566h2.16l-.132.864h-2.028v3.612c0 .348.088.61.264.786.18.176.478.264.894.264.232 0 .446-.026.642-.078.2-.056.384-.13.552-.222l.432.774zm6.722-1.128c0 .252.04.436.12.552a.72.72 0 00.378.252l-.27.792a1.824 1.824 0 01-.756-.258c-.212-.136-.368-.344-.468-.624a2.118 2.118 0 01-.864.666 2.867 2.867 0 01-1.134.222c-.636 0-1.138-.18-1.506-.54-.368-.36-.552-.834-.552-1.422 0-.656.256-1.16.768-1.512.516-.356 1.256-.534 2.22-.534h.918v-.48c0-.436-.13-.746-.39-.93-.256-.184-.614-.276-1.074-.276-.212 0-.462.026-.75.078a6.257 6.257 0 00-.912.246l-.294-.84a6.202 6.202 0 011.122-.318c.36-.064.696-.096 1.008-.096.812 0 1.42.186 1.824.558.408.372.612.878.612 1.518v2.946zm-2.67.738c.292 0 .574-.076.846-.228.276-.152.502-.364.678-.636v-1.53h-.84c-.668 0-1.142.114-1.422.342-.28.224-.42.532-.42.924 0 .752.386 1.128 1.158 1.128zm5.204.714v-6.324h.99l.084.852a2.6 2.6 0 01.948-.744 2.68 2.68 0 011.122-.258c.608 0 1.056.166 1.344.498.288.328.432.786.432 1.374V39H48.89v-3.894a5.3 5.3 0 00-.072-.972c-.044-.248-.138-.428-.282-.54-.144-.116-.362-.174-.654-.174-.344 0-.656.106-.936.318-.28.212-.504.44-.672.684V39h-1.152zm12.415-7.056l.336 1.02a3.785 3.785 0 01-.852.162c-.3.024-.632.036-.996.036.748.336 1.122.868 1.122 1.596 0 .624-.216 1.138-.648 1.542-.428.404-1.022.606-1.782.606-.2 0-.37-.008-.51-.024-.14-.02-.274-.05-.402-.09a.672.672 0 00-.306.576c0 .14.056.26.168.36.112.096.33.144.654.144h1.122c.436 0 .824.076 1.164.228.344.152.614.36.81.624.196.26.294.554.294.882 0 .628-.268 1.11-.804 1.446-.532.34-1.292.51-2.28.51-.696 0-1.244-.072-1.644-.216-.396-.144-.678-.358-.846-.642-.164-.284-.246-.64-.246-1.068h1.038c0 .236.046.43.138.582.092.156.26.27.504.342.244.076.596.114 1.056.114.68 0 1.17-.084 1.47-.252.3-.168.45-.414.45-.738a.71.71 0 00-.378-.648c-.252-.144-.574-.216-.966-.216h-1.11c-.568 0-.986-.12-1.254-.36-.264-.24-.396-.52-.396-.84 0-.444.232-.818.696-1.122-.716-.376-1.074-.962-1.074-1.758 0-.432.108-.814.324-1.146a2.22 2.22 0 01.912-.786c.388-.188.834-.282 1.338-.282.524 0 .954-.024 1.29-.072.336-.048.626-.116.87-.204.244-.088.49-.19.738-.306zm-2.892 1.398c-.476 0-.83.132-1.062.396-.228.26-.342.594-.342 1.002 0 .416.118.754.354 1.014s.594.39 1.074.39c.424 0 .748-.124.972-.372.224-.248.336-.596.336-1.044 0-.924-.444-1.386-1.332-1.386zm7.465-3.21v7.236c0 .304.094.52.282.648.188.124.43.186.726.186.188 0 .366-.018.534-.054.172-.04.34-.094.504-.162l.3.822a3.114 3.114 0 01-.66.24 3.59 3.59 0 01-.894.102c-.596 0-1.07-.166-1.422-.498-.348-.332-.522-.788-.522-1.368v-6.276h-1.926v-.876h3.078zm5.527 6.096c.032.696.22 1.202.564 1.518.349.316.76.474 1.237.474.316 0 .606-.048.87-.144a3.7 3.7 0 00.803-.42l.523.726a3.58 3.58 0 01-2.233.768c-.632 0-1.17-.138-1.614-.414a2.702 2.702 0 01-1.007-1.164c-.229-.496-.343-1.072-.343-1.728 0-.636.114-1.204.343-1.704.231-.5.557-.894.977-1.182.42-.288.92-.432 1.5-.432.817 0 1.459.28 1.927.84.471.556.707 1.318.707 2.286 0 .108-.001.212-.005.312-.005.1-.01.188-.019.264h-4.23zm1.632-2.802c-.451 0-.825.16-1.121.48-.296.32-.466.814-.51 1.482h3.144c-.013-.64-.153-1.126-.42-1.458-.264-.336-.629-.504-1.093-.504z"/>
      <path fill="#8EC07C" d="M85.851 30.732l-.162.888h-3.228v2.478a2.77 2.77 0 01.702-.264 3.12 3.12 0 01.696-.078c.668 0 1.212.228 1.632.684.424.456.636 1.098.636 1.926 0 .552-.118 1.038-.354 1.458a2.51 2.51 0 01-1.002.978c-.428.232-.932.348-1.512.348-.516 0-.976-.092-1.38-.276a3.581 3.581 0 01-1.074-.762l.696-.666c.48.512 1.06.768 1.74.768.528 0 .94-.16 1.236-.48.3-.32.45-.782.45-1.386 0-.64-.138-1.084-.414-1.332a1.449 1.449 0 00-1.014-.378c-.232 0-.44.024-.624.072a4.662 4.662 0 00-.624.204h-.888v-4.182h4.488zm4.897-.15c.904 0 1.588.372 2.052 1.116.468.74.702 1.794.702 3.162 0 1.372-.234 2.43-.702 3.174-.464.744-1.148 1.116-2.052 1.116-.904 0-1.59-.372-2.058-1.116-.464-.744-.696-1.802-.696-3.174 0-1.368.232-2.422.696-3.162.468-.744 1.154-1.116 2.058-1.116zm0 .906c-.492 0-.878.262-1.158.786-.276.524-.414 1.386-.414 2.586 0 .888.062 1.584.186 2.088l2.448-4.95c-.24-.34-.594-.51-1.062-.51zm1.572 3.372c0-.86-.058-1.536-.174-2.028l-2.43 4.938c.24.316.584.474 1.032.474.5 0 .886-.262 1.158-.786.276-.528.414-1.394.414-2.598zm12.447-4.278c.532 0 .99.096 1.374.288.388.188.686.44.894.756.212.312.318.656.318 1.032 0 .508-.16.936-.48 1.284a2.095 2.095 0 01-1.146.654c.332.032.642.126.93.282.288.156.52.38.696.672.176.288.264.646.264 1.074 0 .476-.122.906-.366 1.29-.244.38-.586.682-1.026.906-.436.22-.946.33-1.53.33-.488 0-.964-.09-1.428-.27a2.876 2.876 0 01-1.176-.858l.744-.624c.232.276.508.482.828.618.324.132.654.198.99.198.548 0 .978-.142 1.29-.426.316-.288.474-.682.474-1.182 0-.568-.156-.962-.468-1.182-.312-.224-.71-.336-1.194-.336h-.702l.138-.876h.492c.264 0 .512-.05.744-.15.232-.1.42-.252.564-.456.144-.204.216-.464.216-.78 0-.432-.146-.762-.438-.99-.292-.232-.648-.348-1.068-.348-.352 0-.662.064-.93.192a3.078 3.078 0 00-.804.564l-.624-.684a3.481 3.481 0 012.424-.978zm7.567 0c.904 0 1.588.372 2.052 1.116.468.74.702 1.794.702 3.162 0 1.372-.234 2.43-.702 3.174-.464.744-1.148 1.116-2.052 1.116-.904 0-1.59-.372-2.058-1.116-.464-.744-.696-1.802-.696-3.174 0-1.368.232-2.422.696-3.162.468-.744 1.154-1.116 2.058-1.116zm0 .906c-.492 0-.878.262-1.158.786-.276.524-.414 1.386-.414 2.586 0 .888.062 1.584.186 2.088l2.448-4.95c-.24-.34-.594-.51-1.062-.51zm1.572 3.372c0-.86-.058-1.536-.174-2.028l-2.43 4.938c.24.316.584.474 1.032.474.5 0 .886-.262 1.158-.786.276-.528.414-1.394.414-2.598z"/>
    </g>
    <g>
      <rect width="81" height="18" fill="#8F3F71" rx="9"/>
      <rect width="80" height="17" x=".5" y=".5" stroke="#000" stroke-opacity=".25" rx="8.5"/>
      <g filter="url(#filter5_d)">
        <path fill="#FBF1C7" d="M12.086 12.178c.308 0 .594-.05.858-.15.268-.104.518-.238.75-.402l.552.75c-.28.232-.616.42-1.008.564-.388.14-.778.21-1.17.21-.636 0-1.18-.136-1.632-.408a2.645 2.645 0 01-1.026-1.146c-.236-.492-.354-1.068-.354-1.728 0-.64.118-1.21.354-1.71.24-.504.586-.902 1.038-1.194.452-.292.998-.438 1.638-.438.824 0 1.54.248 2.148.744l-.546.75c-.532-.368-1.064-.552-1.596-.552-.528 0-.96.196-1.296.588-.336.392-.504.996-.504 1.812 0 .82.168 1.41.504 1.77.34.36.77.54 1.29.54zm6.71-8.526c.24 0 .431.074.575.222a.735.735 0 01.222.54.77.77 0 01-.222.558c-.144.148-.336.222-.576.222a.78.78 0 01-.576-.222.781.781 0 01-.216-.558c0-.212.072-.392.216-.54a.78.78 0 01.576-.222zm.857 3.024v5.448h1.758V13h-4.836v-.876h1.926V7.552h-1.866v-.876h3.018zM23.597 13v-.852h.96v-4.62h-.96v-.852h1.842l.21 1.482c.24-.524.534-.926.882-1.206.352-.284.808-.426 1.368-.426a2.5 2.5 0 01.486.042c.144.028.29.064.438.108l-.18 2.22h-.888v-1.32h-.006c-.948 0-1.628.678-2.04 2.034v2.538h1.284V13h-3.396zm10.075-.822c.308 0 .594-.05.858-.15.268-.104.518-.238.75-.402l.552.75c-.28.232-.616.42-1.008.564-.388.14-.778.21-1.17.21-.636 0-1.18-.136-1.632-.408a2.645 2.645 0 01-1.026-1.146c-.236-.492-.354-1.068-.354-1.728 0-.64.118-1.21.354-1.71.24-.504.586-.902 1.038-1.194.452-.292.998-.438 1.638-.438.824 0 1.54.248 2.148.744l-.546.75c-.532-.368-1.064-.552-1.596-.552-.528 0-.96.196-1.296.588-.336.392-.504.996-.504 1.812 0 .82.168 1.41.504 1.77.34.36.77.54 1.29.54zm6.853-8.046v7.236c0 .304.094.52.282.648.188.124.43.186.726.186.188 0 .366-.018.534-.054.172-.04.34-.094.504-.162l.3.822a3.114 3.114 0 01-.66.24 3.59 3.59 0 01-.894.102c-.596 0-1.07-.166-1.422-.498-.348-.332-.522-.788-.522-1.368V5.008h-1.926v-.876h3.078zm5.528 6.096c.032.696.22 1.202.564 1.518.348.316.76.474 1.236.474.316 0 .606-.048.87-.144a3.7 3.7 0 00.804-.42l.522.726a3.58 3.58 0 01-2.232.768c-.632 0-1.17-.138-1.614-.414a2.702 2.702 0 01-1.008-1.164c-.228-.496-.342-1.072-.342-1.728 0-.636.114-1.204.342-1.704.232-.5.558-.894.978-1.182.42-.288.92-.432 1.5-.432.816 0 1.458.28 1.926.84.472.556.708 1.318.708 2.286 0 .108-.002.212-.006.312s-.01.188-.018.264h-4.23zm1.632-2.802c-.452 0-.826.16-1.122.48-.296.32-.466.814-.51 1.482h3.144c-.012-.64-.152-1.126-.42-1.458-.264-.336-.628-.504-1.092-.504z"/>
        <path fill="#8EC07C" d="M61.613 4.582c.536 0 .994.104 1.374.312.384.204.676.482.876.834.2.348.3.74.3 1.176 0 .372-.064.736-.192 1.092-.128.356-.336.73-.624 1.122-.284.388-.658.82-1.122 1.296a40.413 40.413 0 01-1.704 1.632h3.834l-.138.954h-5.01v-.906a65.75 65.75 0 001.878-1.86c.488-.512.868-.952 1.14-1.32.276-.372.468-.71.576-1.014.108-.304.162-.618.162-.942 0-.444-.126-.794-.378-1.05-.248-.256-.594-.384-1.038-.384-.392 0-.716.07-.972.21-.256.14-.512.362-.768.666l-.768-.594c.324-.404.69-.708 1.098-.912.408-.208.9-.312 1.476-.312zm7.55 0c.904 0 1.588.372 2.052 1.116.468.74.701 1.794.701 3.162 0 1.372-.233 2.43-.701 3.174-.465.744-1.148 1.116-2.053 1.116-.904 0-1.59-.372-2.058-1.116-.463-.744-.695-1.802-.695-3.174 0-1.368.231-2.422.695-3.162.469-.744 1.154-1.116 2.058-1.116zm0 .906c-.492 0-.879.262-1.159.786-.276.524-.413 1.386-.413 2.586 0 .888.062 1.584.186 2.088l2.448-4.95c-.24-.34-.594-.51-1.063-.51zm1.572 3.372c0-.86-.058-1.536-.174-2.028l-2.43 4.938c.24.316.584.474 1.031.474.5 0 .886-.262 1.158-.786.277-.528.415-1.394.415-2.598z"/>
      </g>
    </g>
  </g>
  <g>
    <mask id="e" fill="#fff">
      <path fill-rule="evenodd" d="M6 164a4 4 0 00-4 4H0v30h3a3 3 0 116 0h107v-30H10a4 4 0 00-4-4zm-3 19l9 12h91l9-12-9-12H12l-9 12z" clip-rule="evenodd"/>
    </mask>
    <path fill="#427B58" fill-rule="evenodd" d="M6 164a4 4 0 00-4 4H0v30h3a3 3 0 116 0h107v-30H10a4 4 0 00-4-4zm-3 19l9 12h91l9-12-9-12H12l-9 12z" clip-rule="evenodd"/>
    <path fill="#000" fill-opacity=".25" d="M2 168v1h1v-1H2zm-2 0v-1h-1v1h1zm0 30h-1v1h1v-1zm3 0v1h1v-1H3zm6 0H8v1h1v-1zm107 0v1h1v-1h-1zm0-30h1v-1h-1v1zm-106 0H9v1h1v-1zm2 27l-.8.6.3.4h.5v-1zm-9-12l-.8-.6-.45.6.45.6.8-.6zm100 12v1h.5l.3-.4-.8-.6zm9-12l.8.6.45-.6-.45-.6-.8.6zm-9-12l.8-.6-.3-.4h-.5v1zm-91 0v-1h-.5l-.3.4.8.6zm-9-3a3 3 0 013-3v-2a5 5 0 00-5 5h2zm-3 1h2v-2H0v2zm1 29v-30h-2v30h2zm2-1H0v2h3v-2zm3-3a4 4 0 00-4 4h2a2 2 0 012-2v-2zm4 4a4 4 0 00-4-4v2a2 2 0 012 2h2zm106-1H9v2h107v-2zm-1-29v30h2v-30h-2zm-105 1h106v-2H10v2zm-4-4a3 3 0 013 3h2a5 5 0 00-5-5v2zm6.8 29.4l-9-12-1.6 1.2 9 12 1.6-1.2zm90.2-.4H12v2h91v-2zm8.2-11.6l-9 12 1.6 1.2 9-12-1.6-1.2zm-9-10.8l9 12 1.6-1.2-9-12-1.6 1.2zM12 172h91v-2H12v2zm-8.2 11.6l9-12-1.6-1.2-9 12 1.6 1.2z" mask="url(#e)"/>
    <g>
      <mask id="f" fill="#fff">
        <path fill-rule="evenodd" d="M2.126 210a4.002 4.002 0 017.748 0H116v18H0v-18h2.126z" clip-rule="evenodd"/>
      </mask>
      <path fill="#427B58" fill-rule="evenodd" d="M2.126 210a4.002 4.002 0 017.748 0H116v18H0v-18h2.126z" clip-rule="evenodd"/>
      <path fill="#000" fill-opacity=".25" d="M2.126 210v1h.775l.193-.751-.968-.249zm7.748 0l-.968.249.193.751h.775v-1zM116 210h1v-1h-1v1zm0 18v1h1v-1h-1zM0 228h-1v1h1v-1zm0-18v-1h-1v1h1zm3.094.249A3.002 3.002 0 016 208v-2a5.001 5.001 0 00-4.842 3.751l1.936.498zM6 208c1.397 0 2.572.955 2.906 2.249l1.936-.498A5.001 5.001 0 006 206v2zm3.874 3H116v-2H9.874v2zM115 210v18h2v-18h-2zm1 17H0v2h116v-2zM1 228v-18h-2v18h2zm-1-17h2.126v-2H0v2z" mask="url(#f)"/>
      <g filter="url(#filter6_d)">
        <path fill="#FBF1C7" d="M13.146 223v-6.324h.99l.084.852a2.6 2.6 0 01.948-.744 2.68 2.68 0 011.122-.258c.608 0 1.056.166 1.344.498.288.328.432.786.432 1.374V223h-1.152v-3.894a5.3 5.3 0 00-.072-.972c-.044-.248-.138-.428-.282-.54-.144-.116-.362-.174-.654-.174-.344 0-.656.106-.936.318-.28.212-.504.44-.672.684V223h-1.152zm9.65-9.348c.24 0 .431.074.575.222a.735.735 0 01.222.54.77.77 0 01-.222.558c-.144.148-.336.222-.576.222a.78.78 0 01-.576-.222.781.781 0 01-.216-.558c0-.212.072-.392.216-.54a.78.78 0 01.576-.222zm.857 3.024v5.448h1.758V223h-4.836v-.876h1.926v-4.572h-1.866v-.876h3.018zm6.482-2.544v7.236c0 .304.094.52.282.648.188.124.43.186.726.186.188 0 .366-.018.534-.054.172-.04.34-.094.504-.162l.3.822a3.114 3.114 0 01-.66.24 3.59 3.59 0 01-.894.102c-.596 0-1.07-.166-1.422-.498-.348-.332-.522-.788-.522-1.368v-6.276h-1.926v-.876h3.078z"/>
      </g>
    </g>
  </g>
  <defs>
    <filter id="filter0_d" width="105.84" height="10.624" x="9.822" y="66.526" color-interpolation-filters="sRGB" filterUnits="userSpaceOnUse">
      <feFlood flood-opacity="0" result="BackgroundImageFix"/>
      <feColorMatrix in="SourceAlpha" values="0 0 0 0 0 0 0 0 0 0 0 0 0 0 0 0 0 0 127 0"/>
      <feOffset dy="1"/>
      <feColorMatrix values="0 0 0 0 0 0 0 0 0 0 0 0 0 0 0 0 0 0 0.25 0"/>
      <feBlend in2="BackgroundImageFix" result="effect1_dropShadow"/>
      <feBlend in="SourceGraphic" in2="effect1_dropShadow" result="shape"/>
    </filter>
    <filter id="filter1_d" width="91.18" height="10.624" x="10.092" y="98.526" color-interpolation-filters="sRGB" filterUnits="userSpaceOnUse">
      <feFlood flood-opacity="0" result="BackgroundImageFix"/>
      <feColorMatrix in="SourceAlpha" values="0 0 0 0 0 0 0 0 0 0 0 0 0 0 0 0 0 0 127 0"/>
      <feOffset dy="1"/>
      <feColorMatrix values="0 0 0 0 0 0 0 0 0 0 0 0 0 0 0 0 0 0 0.25 0"/>
      <feBlend in2="BackgroundImageFix" result="effect1_dropShadow"/>
      <feBlend in="SourceGraphic" in2="effect1_dropShadow" result="shape"/>
    </filter>
    <filter id="filter2_d" width="92.14" height="10.156" x="9.558" y="130.994" color-interpolation-filters="sRGB" filterUnits="userSpaceOnUse">
      <feFlood flood-opacity="0" result="BackgroundImageFix"/>
      <feColorMatrix in="SourceAlpha" values="0 0 0 0 0 0 0 0 0 0 0 0 0 0 0 0 0 0 127 0"/>
      <feOffset dy="1"/>
      <feColorMatrix values="0 0 0 0 0 0 0 0 0 0 0 0 0 0 0 0 0 0 0.25 0"/>
      <feBlend in2="BackgroundImageFix" result="effect1_dropShadow"/>
      <feBlend in="SourceGraphic" in2="effect1_dropShadow" result="shape"/>
    </filter>
    <filter id="filter3_d" width="84.368" height="12.91" x="11.834" y="249.652" color-interpolation-filters="sRGB" filterUnits="userSpaceOnUse">
      <feFlood flood-opacity="0" result="BackgroundImageFix"/>
      <feColorMatrix in="SourceAlpha" values="0 0 0 0 0 0 0 0 0 0 0 0 0 0 0 0 0 0 127 0"/>
      <feOffset dy="1"/>
      <feColorMatrix values="0 0 0 0 0 0 0 0 0 0 0 0 0 0 0 0 0 0 0.25 0"/>
      <feBlend in2="BackgroundImageFix" result="effect1_dropShadow"/>
      <feBlend in="SourceGraphic" in2="effect1_dropShadow" result="shape"/>
    </filter>
    <filter id="filter4_d" width="105.882" height="12.43" x="9.206" y="30.132" color-interpolation-filters="sRGB" filterUnits="userSpaceOnUse">
      <feFlood flood-opacity="0" result="BackgroundImageFix"/>
      <feColorMatrix in="SourceAlpha" values="0 0 0 0 0 0 0 0 0 0 0 0 0 0 0 0 0 0 127 0"/>
      <feOffset dy="1"/>
      <feColorMatrix values="0 0 0 0 0 0 0 0 0 0 0 0 0 0 0 0 0 0 0.25 0"/>
      <feBlend in2="BackgroundImageFix" result="effect1_dropShadow"/>
      <feBlend in="SourceGraphic" in2="effect1_dropShadow" result="shape"/>
    </filter>
    <filter id="filter5_d" width="62.861" height="10.498" x="9.056" y="3.652" color-interpolation-filters="sRGB" filterUnits="userSpaceOnUse">
      <feFlood flood-opacity="0" result="BackgroundImageFix"/>
      <feColorMatrix in="SourceAlpha" values="0 0 0 0 0 0 0 0 0 0 0 0 0 0 0 0 0 0 127 0"/>
      <feOffset dy="1"/>
      <feColorMatrix values="0 0 0 0 0 0 0 0 0 0 0 0 0 0 0 0 0 0 0.25 0"/>
      <feBlend in2="BackgroundImageFix" result="effect1_dropShadow"/>
      <feBlend in="SourceGraphic" in2="effect1_dropShadow" result="shape"/>
    </filter>
    <filter id="filter6_d" width="19.335" height="10.498" x="13.146" y="213.652" color-interpolation-filters="sRGB" filterUnits="userSpaceOnUse">
      <feFlood flood-opacity="0" result="BackgroundImageFix"/>
      <feColorMatrix in="SourceAlpha" values="0 0 0 0 0 0 0 0 0 0 0 0 0 0 0 0 0 0 127 0"/>
      <feOffset dy="1"/>
      <feColorMatrix values="0 0 0 0 0 0 0 0 0 0 0 0 0 0 0 0 0 0 0.25 0"/>
      <feBlend in2="BackgroundImageFix" result="effect1_dropShadow"/>
      <feBlend in="SourceGraphic" in2="effect1_dropShadow" result="shape"/>
    </filter>
  </defs>
</svg>
